<svg width="1440" height="547" viewBox="0 0 1440 547" fill="none" xmlns="http://www.w3.org/2000/svg">
<g opacity="0.3">
<path d="M510.339 547.002C501.235 547.002 492.373 546.555 483.857 545.664C465.997 543.792 449.497 539.951 434.814 534.245C419.032 528.114 405.19 519.76 393.67 509.416C370.516 488.624 358.932 463.725 347.729 439.644C345.528 434.916 343.253 430.027 340.942 425.283C325.178 392.949 305.194 364.627 279.853 338.697C229.302 286.972 158.211 242.828 74.261 211.039C-22.826 174.276 -127.211 155.963 -219.666 159.474C-274.007 161.539 -345.806 181.173 -377.895 214.704C-396.938 234.604 -398.474 256.688 -382.332 278.565L-382.653 278.657C-391.116 267.184 -394.804 255.682 -393.61 244.471C-392.515 234.186 -387.33 224.132 -378.198 214.589C-363.673 199.411 -339.72 185.959 -308.927 175.685C-280.473 166.193 -248.782 160.357 -219.687 159.252C-171.302 157.416 -119.843 161.491 -66.7381 171.366C-18.5996 180.319 28.9014 193.602 74.4442 210.847C158.443 242.654 229.577 286.822 280.156 338.578C305.511 364.526 325.505 392.863 341.28 425.215C343.594 429.958 345.869 434.85 348.067 439.578C359.26 463.641 370.837 488.523 393.959 509.284C416.32 529.365 446.588 541.529 483.917 545.439C535.613 550.854 598.389 539.528 651.838 515.14C728.864 479.995 782.321 428.84 834.02 379.371C843.082 370.7 852.45 361.734 861.727 353.076C885.811 330.594 918.428 301.461 957.191 275.507C996.813 248.979 1037.08 229.488 1080.28 215.919C1106.73 207.613 1134.76 202.018 1163.59 199.288C1190.22 196.765 1218.41 196.609 1247.37 198.819C1297.04 202.612 1350.56 213.326 1410.99 231.571C1529.96 267.499 1648.81 311.108 1764.22 361.188C1873.92 408.788 1981.51 462.651 2084 521.275L2083.76 521.438C1871.31 399.912 1644.9 302.454 1410.83 231.769C1278.59 191.834 1173.61 186.859 1080.44 216.115C985.662 245.877 919.453 299.588 862.02 353.197C852.746 361.853 843.378 370.819 834.316 379.49C782.602 428.977 729.128 480.147 652.049 515.316C627.142 526.681 599.121 535.546 571.019 540.95C556.174 543.806 541.417 545.672 527.153 546.5C521.468 546.837 515.858 547.002 510.339 547.002Z" fill="#FFE492" fill-opacity="0.8"/>
<path d="M519.24 534.672C496.023 534.672 474.518 531.909 455.298 526.457C433.867 520.377 415.373 510.955 400.327 498.456C398.996 497.348 397.675 496.204 396.4 495.05C373.493 474.349 361.395 449.773 349.699 426.005C347.332 421.201 344.888 416.233 342.408 411.412C327.641 382.706 309.858 357.406 288.039 334.07C285.352 331.197 282.57 328.318 279.763 325.513C228.469 274.233 156.8 230.648 72.5046 199.471C-25.2833 163.335 -129.964 145.78 -222.254 150.039C-276.2 152.555 -347.668 172.511 -379.894 205.784C-399.191 225.708 -401.375 247.836 -386.216 269.777L-386.54 269.865C-394.486 258.365 -397.751 246.841 -396.24 235.617C-394.852 225.308 -389.456 215.232 -380.197 205.67C-365.525 190.518 -341.642 177.05 -311.138 166.723C-282.945 157.178 -251.391 151.175 -222.285 149.819C-173.96 147.589 -122.444 151.274 -69.1707 160.771C-20.916 169.374 26.8104 182.331 72.6807 199.281C157.025 230.477 228.733 274.087 280.059 325.396C282.866 328.203 285.652 331.085 288.339 333.96C310.172 357.312 327.965 382.625 342.739 411.346C345.222 416.167 347.667 421.135 350.033 425.941C361.726 449.693 373.814 474.252 396.689 494.925C397.961 496.074 399.281 497.218 400.609 498.323C431.701 524.161 474.423 534.672 519.349 534.672C519.596 534.672 519.839 534.672 520.085 534.672C519.804 534.67 519.522 534.672 519.24 534.672ZM528.823 534.518C570.591 533.177 613.689 523.146 650.663 508.223C730.418 475.901 787.739 425.978 843.175 377.701C845.457 375.711 847.739 373.725 850.021 371.739C855.033 367.381 860.975 362.221 867.039 357.019C894.247 333.691 927.174 306.549 965.095 282.118C1005.44 256.122 1045.75 236.832 1088.32 223.142C1114.48 214.739 1142.12 208.82 1170.49 205.548C1196.76 202.517 1224.54 201.661 1253.02 203.001C1302.22 205.32 1355.13 214.107 1414.76 229.869C1472.91 245.212 1520.7 259.655 1565.17 275.322C1628.17 297.538 1688.18 323.136 1738.58 345.244C1855.74 396.791 1970.7 455.322 2080.26 519.214L2080.02 519.375C1970.47 455.492 1855.53 396.965 1738.38 345.424C1687.99 323.318 1627.99 297.726 1565 275.516C1520.54 259.854 1472.76 245.415 1414.63 230.076C1284.72 195.739 1181.08 193.597 1088.48 223.34C992.376 254.242 923.934 308.613 867.325 357.151C861.256 362.353 855.318 367.511 850.307 371.871C848.024 373.855 845.742 375.843 843.46 377.833C788.006 426.126 730.665 476.066 650.853 508.412C631.063 516.399 610.005 522.743 588.26 527.267C568.02 531.474 548.067 533.906 528.823 534.518Z" fill="#FFE492" fill-opacity="0.8"/>
<path d="M529.056 522.625C526.263 522.625 523.487 522.587 520.733 522.51C497.537 521.87 476.071 518.543 456.932 512.62C436.001 506.141 417.867 496.545 403.036 484.097C401.718 482.987 400.405 481.84 399.137 480.687C376.487 460.087 363.885 435.839 351.703 412.392C349.163 407.505 346.536 402.451 343.873 397.546C328.377 368.937 310.126 343.84 288.071 320.818C285.341 317.972 282.517 315.117 279.667 312.334C227.63 261.501 155.384 218.475 70.7434 187.91C-27.7418 152.402 -132.718 135.601 -224.846 140.609C-276.718 143.473 -347.978 162.29 -381.86 196.834C-401.435 216.791 -404.284 238.979 -390.101 260.997L-390.429 261.078C-397.86 249.543 -400.695 237.992 -398.864 226.748C-397.18 216.406 -391.559 206.304 -382.159 196.719C-367.331 181.603 -343.526 168.13 -313.315 157.755C-285.385 148.164 -253.976 141.998 -224.878 140.391C-176.609 137.769 -125.037 141.063 -71.5975 150.181C-23.2231 158.436 24.7252 171.065 70.9195 187.72C155.609 218.306 227.894 261.355 279.963 312.218C282.813 315.002 285.641 317.857 288.37 320.708C310.436 343.743 328.697 368.856 344.201 397.48C346.863 402.387 349.491 407.441 352.03 412.328C364.209 435.762 376.8 459.992 399.422 480.568C400.69 481.721 401.997 482.866 403.314 483.971C463.578 534.554 570.379 529.123 649.486 501.305C732.57 471.831 794.314 422.844 854.025 375.471L854.638 374.985C860.421 370.393 866.402 365.646 872.354 360.96C935.161 311.517 1004.2 260.706 1096.37 230.36C1122.24 221.859 1149.51 215.616 1177.39 211.805C1203.33 208.261 1230.68 206.705 1258.68 207.18C1307.49 208.008 1359.78 214.872 1418.55 228.163C1480.31 242.083 1526.79 254.877 1569.25 269.65C1629.75 290.741 1688.35 317.393 1740.05 340.908C1855.17 393.544 1968.37 452.84 2076.53 517.143L2076.28 517.302C1968.14 453.005 1854.94 393.716 1739.84 341.084C1688.15 317.573 1629.56 290.926 1569.08 269.842C1526.63 255.073 1480.17 242.283 1418.43 228.368C1291.04 199.557 1188.76 200.25 1096.53 230.552C1004.42 260.878 935.412 311.667 872.629 361.092C866.676 365.779 860.696 370.527 854.913 375.117L854.3 375.603C824.543 399.21 793.775 423.621 760.549 445.426C723.208 469.929 686.936 488.268 649.655 501.492C610.653 515.206 568.167 522.625 529.056 522.625Z" fill="#FFE492" fill-opacity="0.8"/>
<path d="M2072.55 515.226C1965.81 450.515 1854.37 390.464 1741.32 336.743C1736.53 334.484 1731.73 332.214 1726.91 329.938C1677.94 306.776 1627.31 282.825 1573.16 264.166C1520.63 246.115 1467.39 235.078 1422.24 226.662C1297.61 203.288 1196.67 206.817 1104.58 237.763C1010.05 269.626 936.799 322.526 877.943 365.034C874.411 367.586 870.885 370.141 867.353 372.699C864.746 374.588 862.137 376.477 859.527 378.364C826.015 402.592 795.532 424.253 761.852 444.019C723.374 466.598 686.287 483.135 648.465 494.575C613.02 505.298 575.155 510.971 539.935 510.973C533.518 510.973 527.196 510.786 520.983 510.405C498.302 509.016 477.303 505.113 458.574 498.804C438.136 491.92 420.36 482.142 405.733 469.739C404.427 468.628 403.123 467.479 401.863 466.323C379.48 445.83 366.389 421.924 353.731 398.805C351.005 393.826 348.184 388.675 345.331 383.675C329.095 355.157 310.372 330.26 288.099 307.559C285.327 304.735 282.457 301.906 279.569 299.148C226.785 248.761 153.964 206.295 68.9824 176.339C-30.2002 141.459 -135.469 125.418 -227.435 131.167C-290.306 135.176 -354.596 158.48 -383.779 187.835C-403.661 207.834 -407.186 230.092 -393.982 252.202L-394.313 252.279C-401.227 240.702 -403.636 229.116 -401.474 217.843C-399.484 207.464 -393.63 197.329 -384.079 187.718C-369.096 172.645 -345.368 159.173 -315.46 148.761C-287.798 139.13 -256.551 132.803 -227.47 130.949C-179.258 127.934 -127.632 130.837 -74.0278 139.577C-25.5371 147.484 22.6401 159.787 69.1585 176.145C154.193 206.119 227.052 248.609 279.868 299.027C282.76 301.787 285.63 304.618 288.402 307.443C310.689 330.156 329.419 355.067 345.666 383.598C348.519 388.6 351.34 393.749 354.066 398.73C366.717 421.836 379.801 445.727 402.155 466.195C403.416 467.349 404.715 468.496 406.019 469.605C468.932 522.953 575.863 516.289 648.313 494.375C734.753 468.227 800.9 420.409 859.263 378.218C861.872 376.329 864.479 374.441 867.088 372.554C870.618 369.996 874.147 367.44 877.679 364.889C911.275 340.626 944.452 317.047 980.926 295.32C1022.87 270.332 1063.27 251.443 1104.42 237.57C1130.03 228.965 1156.9 222.398 1184.31 218.055C1209.92 213.993 1236.85 211.739 1264.35 211.352C1312.84 210.669 1364.53 215.609 1422.35 226.451C1467.51 234.871 1520.78 245.913 1573.33 263.975C1627.51 282.64 1678.15 306.597 1727.13 329.764C1731.94 332.041 1736.74 334.31 1741.53 336.569C1854.6 390.295 1966.05 450.352 2072.8 515.069L2072.55 515.226Z" fill="#FFE492" fill-opacity="0.8"/>
<path d="M2068.82 513.152C1961.47 446.79 1851.78 385.975 1742.78 332.401C1736.26 329.196 1729.59 325.892 1723.14 322.698C1676.93 299.821 1629.14 276.166 1577.24 258.491C1525.42 240.904 1471.73 231.667 1426.05 224.953C1304.45 206.909 1204.86 213.271 1112.63 244.975C1024.67 275.325 955.754 320.963 889.108 365.098L881.789 369.943C876.01 373.771 870.033 377.727 864.14 381.608C797.427 425.49 730.643 466.617 647.274 487.654C627.044 492.759 606.271 496.296 585.527 498.174C563.25 500.188 541.611 500.217 521.209 498.257C499.048 496.129 478.526 491.658 460.211 484.968C440.28 477.688 422.861 467.731 408.442 455.377C407.142 454.259 405.849 453.108 404.599 451.954C382.492 431.583 368.928 408.029 355.813 385.249C352.886 380.166 349.857 374.909 346.8 369.804C329.81 341.374 310.622 316.677 288.138 294.302C285.327 291.507 282.415 288.7 279.481 285.964C225.954 236.024 152.559 194.117 67.2284 164.771C-32.655 130.522 -138.219 115.236 -230.027 121.732C-292.324 126.234 -356.322 149.7 -385.653 178.8C-405.866 198.85 -410.088 221.193 -397.867 243.416L-398.202 243.489C-404.598 231.861 -406.573 220.231 -404.076 208.925C-401.773 198.502 -395.676 188.327 -385.956 178.685C-370.811 163.663 -347.168 150.204 -317.576 139.761C-290.19 130.095 -259.112 123.616 -230.069 121.516C-181.913 118.109 -130.235 120.62 -76.4615 128.981C-27.8511 136.541 20.548 148.516 67.3939 164.579C152.774 193.941 226.211 235.874 279.77 285.843C282.703 288.581 285.62 291.39 288.43 294.186C310.928 316.571 330.127 341.281 347.124 369.727C350.181 374.832 353.21 380.091 356.137 385.174C369.246 407.941 382.802 431.484 404.884 451.831C406.131 452.98 407.424 454.129 408.72 455.247C470.119 507.853 572.136 506.376 647.137 487.451C730.439 466.433 797.195 425.32 863.88 381.458C869.772 377.577 875.749 373.621 881.529 369.793L888.847 364.948C921.563 343.285 955.388 320.882 992.126 300.041C1033.73 276.438 1073.1 258.363 1112.46 244.781C1137.8 236.068 1164.3 229.178 1191.21 224.304C1216.5 219.721 1243.01 216.767 1270 215.523C1318.29 213.297 1369.35 216.313 1426.13 224.738C1471.83 231.456 1525.54 240.695 1577.41 258.297C1629.33 275.978 1677.13 299.641 1723.35 322.524C1729.81 325.718 1736.48 329.02 1743 332.227C1852.01 385.806 1961.71 446.625 2069.06 512.993L2068.82 513.152Z" fill="#FFE492" fill-opacity="0.8"/>
<path d="M2065.09 511.078C1958.66 443.979 1850.72 382.403 1744.25 328.063C1736.25 323.979 1728.05 319.733 1720.12 315.627C1676.4 292.997 1631.19 269.597 1581.32 252.82C1529.74 235.535 1475.81 228.172 1429.86 223.25C1311.63 210.392 1213.38 219.589 1120.68 252.191C1039.78 280.762 973.361 321.254 909.124 360.411C902.365 364.532 895.374 368.792 888.562 372.919C880.564 377.767 874.453 381.45 868.751 384.857C838.212 403.098 801.851 424.101 763.694 441.571C723.258 460.082 684.787 472.894 646.081 480.739C625.727 484.865 605.043 487.467 584.597 488.47C562.645 489.549 541.39 488.757 521.427 486.113C499.799 483.249 479.755 478.21 461.846 471.137C442.426 463.468 425.369 453.333 411.147 441.018C409.865 439.902 408.579 438.749 407.332 437.591C385.517 417.356 371.5 394.165 357.94 371.737C354.795 366.536 351.544 361.158 348.265 355.934C330.511 327.583 310.855 303.088 288.17 281.046C285.317 278.275 282.362 275.494 279.386 272.78C225.116 223.287 151.143 181.939 65.4676 153.203C-35.1097 119.584 -140.97 105.057 -232.616 112.295C-284.762 116.504 -352.87 135.894 -387.477 169.719C-408.053 189.831 -412.99 212.276 -401.752 234.626L-402.086 234.692C-407.965 223.005 -409.5 211.325 -406.654 199.975C-404.027 189.499 -397.677 179.28 -387.773 169.601C-372.466 154.64 -348.911 141.203 -319.647 130.738C-292.535 121.043 -261.644 114.417 -232.658 112.077C-184.558 108.278 -132.824 110.398 -78.888 118.38C-30.1613 125.591 18.4632 137.241 65.6331 153.009C151.358 181.761 225.373 223.133 279.675 272.655C282.651 275.369 285.609 278.154 288.462 280.927C311.158 302.98 330.824 327.488 348.589 355.852C351.872 361.078 355.123 366.456 358.268 371.658C371.817 394.074 385.831 417.252 407.621 437.465C408.868 438.621 410.15 439.772 411.432 440.886C462.511 485.12 550.191 499.939 645.972 480.526C732.711 462.946 803.468 423.544 868.508 384.694C874.21 381.287 880.317 377.604 888.316 372.757C895.127 368.629 902.118 364.369 908.877 360.248C940.501 340.971 973.199 321.038 1008.08 302.373C1047.52 281.264 1084.3 264.785 1120.51 251.995C1145.61 243.168 1171.72 235.954 1198.12 230.556C1223.12 225.442 1249.21 221.79 1275.67 219.697C1323.83 215.888 1374.29 216.978 1429.92 223.027C1475.9 227.954 1529.86 235.32 1581.49 252.62C1631.39 269.408 1676.61 292.815 1720.34 315.451C1728.27 319.557 1736.47 323.803 1744.47 327.886C1850.95 382.233 1958.9 443.814 2065.34 510.918L2065.09 511.078Z" fill="#FFE492" fill-opacity="0.8"/>
<path d="M2061.35 509.005C1955.85 441.164 1849.66 378.824 1745.72 323.722C1736.87 319.035 1727.79 314.115 1719.01 309.358C1677.17 286.697 1633.91 263.266 1585.4 247.146C1533.78 230.067 1479.73 224.619 1433.66 221.542C1320.79 213.8 1221.05 226.184 1128.73 259.403C1055.22 285.973 992.209 321.518 931.272 355.894C918.963 362.837 906.238 370.018 893.865 376.862C886.296 381.051 879.59 384.73 873.356 388.107C844.367 403.794 805.805 423.907 764.598 440.345C723.193 456.859 684.032 467.811 644.878 473.823C602.174 480.381 559.555 480.429 521.63 473.966C500.544 470.371 480.976 464.767 463.468 457.306C444.565 449.251 427.871 438.94 413.843 426.663C412.572 425.545 411.297 424.389 410.057 423.231C388.552 403.151 374.098 380.34 360.122 358.283C356.741 352.947 353.248 347.43 349.722 342.07C331.189 313.794 311.065 289.497 288.196 267.796C285.301 265.049 282.304 262.293 279.286 259.603C224.272 210.557 149.726 169.766 63.7052 141.644C-37.5659 108.657 -143.722 94.8871 -235.209 102.867C-297.21 108.392 -359.116 131.595 -389.25 160.6C-410.22 180.784 -415.887 203.345 -405.638 225.845L-405.976 225.905C-411.333 214.147 -412.425 202.405 -409.223 191.007C-406.265 180.471 -399.643 170.2 -389.546 160.478C-374.077 145.589 -350.614 132.182 -321.691 121.708C-294.864 111.994 -264.167 105.222 -235.258 102.647C-187.215 98.4554 -135.424 100.186 -81.323 107.787C-32.4766 114.651 16.3733 125.975 63.8672 141.446C149.937 169.585 224.526 210.398 279.575 259.475C282.593 262.165 285.59 264.924 288.489 267.673C311.368 289.387 331.503 313.695 350.046 341.984C353.571 347.344 357.065 352.863 360.446 358.199C374.415 380.246 388.862 403.045 410.346 423.106C411.586 424.264 412.857 425.415 414.128 426.533C464.331 470.481 550.56 488.079 644.794 473.609C730.702 460.417 805.305 424.638 873.124 387.942C879.354 384.565 886.064 380.889 893.629 376.699C905.998 369.855 918.727 362.677 931.032 355.734C991.984 321.351 1055.01 285.797 1128.55 259.216C1153.43 250.263 1179.16 242.727 1205.02 236.815C1229.75 231.162 1255.42 226.809 1281.32 223.879C1329.47 218.431 1379.32 217.597 1433.69 221.326C1479.79 224.406 1533.89 229.856 1585.56 246.954C1634.1 263.086 1677.38 286.525 1719.24 309.195C1728.02 313.952 1737.1 318.87 1745.95 323.557C1849.89 378.663 1956.1 441.007 2061.6 508.853L2061.35 509.005Z" fill="#FFE492" fill-opacity="0.8"/>
<path d="M2057.62 506.931C1953.06 438.341 1848.61 375.242 1747.19 319.383C1737.87 314.249 1728.28 308.814 1719.01 303.557C1678.69 280.705 1637.01 257.074 1589.48 241.473C1537.64 224.54 1483.55 221.033 1437.47 219.836C1328.86 216.806 1230.5 232.108 1136.78 266.616C1071.05 290.932 1012.45 321.707 955.782 351.467C936.299 361.701 917.893 371.368 899.173 380.805C891.559 384.646 884.624 388.098 877.968 391.354C835.017 412.343 799.283 427.52 765.507 439.112C723.134 453.656 683.286 462.748 643.685 466.904C628.322 468.515 613.016 469.319 597.987 469.319C571.347 469.319 545.57 466.8 521.839 461.812C478.892 452.784 443.467 436.127 416.549 412.302C415.281 411.172 414.017 410.017 412.791 408.863C391.613 388.956 376.754 366.551 362.384 344.881C358.743 339.391 354.981 333.716 351.188 328.197C331.863 299.987 311.266 275.893 288.232 254.538C285.295 251.815 282.256 249.083 279.195 246.417C223.439 197.818 148.315 157.586 61.9485 130.073C-40.0165 97.7201 -146.465 84.7057 -237.794 93.4275C-300.052 99.4966 -360.172 122.259 -390.951 151.418C-412.347 171.685 -418.764 194.381 -409.515 217.053L-409.857 217.108C-414.685 205.269 -415.326 193.457 -411.758 181.999C-408.455 171.393 -401.555 161.064 -391.243 151.297C-375.612 136.488 -352.251 123.126 -323.681 112.652C-297.142 102.922 -266.66 96.0184 -237.846 93.2095C-189.859 88.6263 -138.012 89.9647 -83.749 97.1874C-34.7828 103.706 14.289 114.703 62.1105 129.875C148.526 157.405 223.692 197.659 279.484 246.287C282.544 248.955 285.584 251.687 288.525 254.412C311.573 275.778 332.18 299.885 351.512 328.107C355.305 333.625 359.07 339.303 362.708 344.793C377.071 366.452 391.923 388.849 413.083 408.738C414.309 409.889 415.57 411.045 416.838 412.172C467.103 456.665 549.764 476.535 643.625 466.684C732.975 457.306 812.114 423.253 877.749 391.178C884.402 387.922 891.337 384.472 898.952 380.631C917.667 371.194 936.073 361.53 955.557 351.296C1012.23 321.529 1070.84 290.75 1136.6 266.425C1161.29 257.333 1186.63 249.474 1211.93 243.064C1236.43 236.856 1261.68 231.804 1286.98 228.051C1335.24 220.894 1384.47 218.134 1437.48 219.613C1483.6 220.811 1537.74 224.322 1589.64 241.274C1637.21 256.886 1678.91 280.529 1719.24 303.39C1728.51 308.647 1738.1 314.082 1747.42 319.213C1848.85 375.077 1953.3 438.183 2057.87 506.777L2057.62 506.931Z" fill="#FFE492" fill-opacity="0.8"/>
<path d="M2053.88 504.858C1948.81 434.538 1848.96 372.449 1748.65 315.042C1739.08 309.565 1729.66 303.971 1719.68 298.05C1680.68 274.9 1640.36 250.965 1593.56 235.8C1541.07 218.874 1484.6 217.465 1441.27 218.13C1337.61 219.512 1240.64 237.733 1144.82 273.833C1087.34 295.597 1034.26 321.734 982.923 347.012C955.944 360.297 930.463 372.843 904.477 384.75C896.764 388.287 889.597 391.51 882.574 394.603C839.039 413.746 802.129 427.496 766.409 437.877C723.053 450.478 682.519 457.709 642.488 459.985C621.919 461.154 601.492 460.934 581.772 459.331C560.894 457.634 540.797 454.378 522.043 449.657C480.473 439.189 445.891 421.792 419.254 397.945C417.996 396.813 416.743 395.655 415.524 394.502C394.702 374.8 379.469 352.821 364.737 331.567C360.806 325.897 356.742 320.032 352.653 314.331C332.518 286.182 311.456 262.289 288.264 241.286C285.281 238.587 282.199 235.879 279.104 233.237C222.604 185.085 146.906 145.412 60.1946 118.51C-19.8389 93.782 -102.373 80.8799 -178.057 80.8799C-199.453 80.8799 -220.286 81.9101 -240.378 83.9948C-301.886 90.502 -361.63 113.345 -392.588 142.192C-414.438 162.554 -421.634 185.404 -413.396 208.27L-413.741 208.318C-418.041 196.387 -418.221 184.493 -414.276 172.969C-410.621 162.286 -403.422 151.889 -392.884 142.069C-377.091 127.353 -353.839 114.045 -325.635 103.582C-299.012 93.705 -269.551 86.8566 -240.442 83.7791C-192.511 78.804 -140.608 79.7528 -86.179 86.5946C-37.0966 92.7628 12.2041 103.433 60.3496 118.309C147.11 145.228 222.854 184.922 279.389 233.103C282.488 235.745 285.573 238.455 288.557 241.156C311.759 262.17 332.831 286.074 352.977 314.236C357.066 319.938 361.134 325.802 365.065 331.475C379.79 352.72 395.016 374.69 415.82 394.376C417.039 395.528 418.292 396.685 419.546 397.815C469.358 442.407 550.603 464.984 642.46 459.763C735.408 454.477 819.499 422.065 882.377 394.418C889.4 391.325 896.564 388.102 904.277 384.567C930.258 372.664 955.736 360.117 982.711 346.834C1034.05 321.553 1087.14 295.41 1144.65 273.639C1193.98 255.053 1242.39 241.508 1292.65 232.227C1341.12 223.276 1389.74 218.592 1441.27 217.905C1470.68 217.454 1494.66 218.237 1516.77 220.368C1545.31 223.12 1570.48 228.102 1593.73 235.6C1640.57 250.778 1680.91 274.726 1719.93 297.887C1729.91 303.808 1739.33 309.4 1748.9 314.877C1849.21 372.286 1949.06 434.379 2054.14 504.703L2053.88 504.858Z" fill="#FFE492" fill-opacity="0.8"/>
<path d="M2050.15 502.784C1946.03 431.693 1847.89 368.865 1750.12 310.701C1740.45 304.946 1730.91 299.018 1720.81 292.742C1682.98 269.227 1643.86 244.909 1597.64 230.125C1544.72 213.278 1488.31 213.951 1445.08 216.419C1347.26 221.81 1251.68 242.95 1152.87 281.042C1104.19 299.901 1057.84 321.483 1013.02 342.356C977.584 358.855 944.118 374.441 909.786 388.686C902.027 391.908 894.419 394.99 887.182 397.843C843.562 415.023 804.352 427.709 767.311 436.629C722.959 447.31 681.737 452.685 641.291 453.06C620.712 453.249 600.365 452.087 580.829 449.601C560.349 446.995 540.64 442.92 522.248 437.487C482.104 425.629 448.36 407.492 421.956 383.579C420.716 382.449 419.469 381.289 418.254 380.129C397.823 360.667 382.259 339.153 367.207 318.348C362.948 312.462 358.542 306.373 354.115 300.453C333.156 272.358 311.626 248.667 288.297 228.022C285.271 225.348 282.147 222.664 279.009 220.047C221.766 172.341 145.491 133.228 58.4343 106.935C-44.9148 75.8519 -151.958 64.352 -242.97 74.5531C-303.682 81.4763 -363.027 104.379 -394.158 132.898C-416.502 153.368 -424.497 176.39 -417.284 199.477L-417.629 199.519C-421.39 187.484 -421.101 175.498 -416.766 163.895C-412.74 153.124 -405.235 142.652 -394.451 132.772C-378.503 118.162 -355.367 104.921 -327.543 94.4797C-301.227 84.6045 -272.005 77.6394 -243.033 74.3352C-195.156 68.9705 -143.199 69.5252 -88.6085 75.9884C-39.4064 81.8131 10.1162 92.1573 58.5857 106.735C145.695 133.041 222.013 172.179 279.287 219.913C282.429 222.53 285.556 225.216 288.582 227.892C311.925 248.548 333.462 272.25 354.432 300.356C358.863 306.276 363.265 312.365 367.527 318.253C382.573 339.05 398.13 360.555 418.546 380.003C419.762 381.161 421.008 382.322 422.245 383.449C472.581 429.034 550.371 453.68 641.284 452.835C715.052 452.153 793.127 434.617 886.991 397.652C894.226 394.799 901.829 391.719 909.588 388.496C943.91 374.254 977.376 358.672 1012.8 342.173C1057.64 321.298 1103.99 299.712 1152.69 280.848C1202.5 261.641 1250.13 247.104 1298.3 236.398C1347.1 225.555 1395.1 218.944 1445.05 216.192C1488.32 213.72 1544.8 213.049 1597.8 229.922C1644.07 244.724 1683.21 269.053 1721.06 292.579C1731.16 298.855 1740.7 304.781 1750.36 310.533C1848.14 368.7 1946.28 431.533 2050.4 502.627L2050.15 502.784Z" fill="#FFE492" fill-opacity="0.8"/>
<path d="M2046.41 500.71C1943.27 428.847 1846.83 365.274 1751.59 306.362C1741.92 300.381 1732.38 294.166 1722.27 287.586C1685.51 263.651 1647.49 238.901 1601.72 224.452C1548.3 207.666 1491.99 210.429 1448.89 214.711C1356.85 223.681 1265.35 247.051 1160.92 288.256C1121.76 303.779 1083.48 320.809 1046.47 337.277C1001.52 357.279 959.057 376.173 915.092 392.628C907.171 395.595 899.331 398.444 891.79 401.09C847.389 416.662 806.967 427.88 768.215 435.383C746.509 439.585 725.081 442.63 704.526 444.432C682.602 446.354 660.924 446.929 640.095 446.141C597.835 444.54 558.255 437.536 522.458 425.322C483.797 412.132 450.894 393.258 424.666 369.219C423.433 368.081 422.197 366.919 420.989 365.765C400.995 346.589 385.153 325.586 369.836 305.276C365.197 299.128 360.404 292.77 355.582 286.585C333.778 258.535 311.78 235.044 288.33 214.768C285.262 212.115 282.093 209.456 278.916 206.865C220.93 159.604 144.08 121.05 56.6787 95.3711C-47.3607 64.9243 -154.697 54.1817 -245.557 65.1202C-342.845 77.0141 -437.646 128.405 -421.163 190.692L-421.512 190.727C-425.636 175.146 -423.22 159.796 -414.334 145.1C-406.219 131.678 -392.903 119.047 -374.754 107.56C-357.88 96.879 -337.636 87.6576 -314.588 80.151C-292.667 73.012 -268.82 67.7376 -245.627 64.9022C-197.806 59.1457 -145.793 59.3108 -91.0368 65.3953C-41.715 70.8745 8.03303 80.8928 56.8266 95.173C144.277 120.869 221.173 159.446 279.194 206.733C282.374 209.326 285.544 211.985 288.615 214.64C312.075 234.926 334.084 258.429 355.899 286.49C360.721 292.676 365.514 299.033 370.153 305.184C385.466 325.487 401.301 346.481 421.285 365.646C422.49 366.8 423.722 367.962 424.955 369.098C475.365 415.295 551.778 442.577 640.116 445.923C714.902 448.751 797.169 434.027 891.618 400.901C899.155 398.255 906.991 395.408 914.912 392.441C958.867 375.99 1001.32 357.098 1046.27 337.099C1083.28 320.629 1121.56 303.597 1160.73 288.071C1265.2 246.848 1356.75 223.47 1448.83 214.493C1477.79 211.616 1501.77 210.695 1524.29 211.6C1553.08 212.756 1578.46 216.894 1601.88 224.253C1647.7 238.719 1685.74 263.484 1722.52 287.432C1732.63 294.01 1742.17 300.224 1751.83 306.203C1847.08 365.12 1943.52 428.695 2046.67 500.562L2046.41 500.71Z" fill="#FFE492" fill-opacity="0.8"/>
<path d="M2042.68 498.636C1940.51 425.989 1845.78 361.677 1753.06 302.021C1743.47 295.848 1733.99 289.383 1723.95 282.534C1688.18 258.141 1651.2 232.916 1605.8 218.777C1551.22 201.85 1492.28 207.374 1452.7 213C1345.26 228.084 1248.98 263.151 1168.98 295.469C1140.22 307.132 1111.54 319.486 1083.79 331.433C1028.14 355.399 975.579 378.035 920.404 396.571C912.289 399.298 904.217 401.911 896.405 404.339C851.137 418.382 809.504 428.129 769.128 434.134C723.356 440.943 679.546 442.656 638.906 439.222C597.156 435.693 558.048 426.923 522.674 413.153C485.569 398.713 453.509 379.101 427.376 354.862C426.157 353.724 424.928 352.559 423.727 351.401C404.229 332.577 388.19 312.151 372.676 292.396C367.594 285.922 362.335 279.23 357.052 272.716C334.071 244.314 312.246 221.691 288.37 201.514C285.26 198.885 282.052 196.252 278.829 193.683C220.093 146.872 142.666 108.876 54.9189 83.8052C-49.8108 53.9967 -157.443 44.0092 -248.148 55.6851C-345.784 68.4199 -438.648 119.113 -425.047 181.906L-425.395 181.935C-428.769 166.356 -425.85 151.021 -416.721 136.358C-408.352 122.923 -394.958 110.279 -376.905 98.7788C-360.069 88.0538 -339.931 78.7641 -317.045 71.1628C-295.254 63.9248 -271.453 58.4985 -248.218 55.4672C-200.45 49.3188 -148.384 49.0943 -93.4658 54.798C-44.0242 59.9315 5.94921 69.6241 55.0668 83.6049C142.866 108.689 220.336 146.707 279.1 193.547C282.323 196.118 285.535 198.753 288.648 201.381C312.538 221.568 334.371 244.204 357.362 272.617C362.645 279.131 367.903 285.825 372.986 292.299C388.497 312.048 404.532 332.467 424.016 351.282C425.217 352.44 426.442 353.603 427.661 354.741C478.462 401.858 553.498 431.783 638.948 439.004C715.587 445.48 799.748 434.075 896.247 404.141C904.055 401.715 912.127 399.104 920.235 396.377C975.396 377.846 1027.95 355.214 1083.59 331.25C1111.33 319.303 1140.02 306.947 1168.78 295.282C1222.58 273.553 1267.34 257.498 1309.63 244.759C1359.41 229.763 1406.18 219.305 1452.62 212.784C1480.93 208.76 1505.6 206.938 1528.06 207.215C1556.96 207.572 1582.45 211.288 1605.95 218.578C1651.41 232.735 1688.42 257.976 1724.21 282.384C1734.24 289.231 1743.72 295.696 1753.31 301.864C1846.03 361.523 1940.77 425.84 2042.94 498.489L2042.68 498.636Z" fill="#FFE492" fill-opacity="0.8"/>
<path d="M2038.95 496.56C1937.77 423.128 1844.73 358.074 1754.53 297.677C1745.07 291.344 1735.71 284.654 1725.8 277.57C1690.98 252.686 1654.97 226.955 1609.88 213.102C1554.7 196.215 1495.92 203.979 1456.51 211.29C1359.17 229.189 1272.35 263.27 1177.03 302.681C1159.84 309.816 1142.45 317.179 1125.63 324.303C1060.95 351.696 994.077 380.021 925.712 400.511C917.407 403.003 909.095 405.383 901.012 407.584C855.438 419.982 811.371 428.493 770.033 432.88C723.205 437.85 678.687 437.655 637.705 432.301C596.54 426.923 557.908 416.385 522.878 400.98C487.429 385.39 456.203 365.043 430.07 340.505C428.862 339.364 427.644 338.198 426.45 337.04C407.54 318.656 391.399 298.895 375.789 279.785C370.165 272.899 364.35 265.78 358.507 258.852C334.628 230.479 312.348 208.049 288.391 188.264C285.246 185.666 281.992 183.055 278.724 180.506C219.255 134.135 141.257 96.6986 53.1581 72.2394C-52.2584 43.0693 -160.183 33.8391 -250.74 46.2503C-345.277 59.3483 -439.856 108.262 -428.935 173.118L-429.283 173.14C-431.907 157.561 -428.484 142.244 -419.112 127.614C-410.494 114.164 -397.018 101.509 -379.063 89.9955C-345.936 68.7569 -299.192 52.7333 -250.817 46.0323C-203.105 39.4943 -150.983 38.878 -95.8994 44.2008C-46.338 48.991 3.85734 58.3555 53.299 72.0369C141.447 96.5093 219.491 133.97 278.998 180.363C282.27 182.914 285.524 185.525 288.673 188.125C312.64 207.922 334.931 230.36 358.817 258.744C364.66 265.674 370.478 272.793 376.103 279.679C391.709 298.785 407.846 318.542 426.745 336.916C427.936 338.074 429.155 339.239 430.363 340.379C482.646 389.474 554.368 421.184 637.772 432.083C715.002 442.174 803.517 433.864 900.864 407.382C908.944 405.18 917.249 402.803 925.55 400.313C993.891 379.83 1060.76 351.509 1125.42 324.12C1142.24 316.996 1159.63 309.633 1176.82 302.498C1218.55 285.246 1267.1 265.458 1315.28 248.937C1365.69 231.657 1411.84 219.274 1456.4 211.081C1484.45 205.879 1509.12 203.18 1531.82 202.832C1560.44 202.392 1586.75 205.782 1610.03 212.906C1630.22 219.111 1650.55 228.372 1672.18 241.219C1691.27 252.563 1708.95 265.203 1726.05 277.425C1735.96 284.507 1745.32 291.197 1754.78 297.528C1844.99 357.926 1938.03 422.983 2039.21 496.417L2038.95 496.56Z" fill="#FFE492" fill-opacity="0.8"/>
<path d="M2035.21 494.486C1935.02 420.261 1843.69 354.465 1755.99 293.338C1746.71 286.866 1737.51 279.974 1727.77 272.678C1693.86 247.277 1658.79 221.011 1613.96 207.431C1572.07 194.779 1521.81 195.484 1460.31 209.583C1374.33 229.186 1297.48 261.976 1216.11 296.693C1205.97 301.016 1195.5 305.485 1185.07 309.899C1180.99 311.631 1176.91 313.368 1172.82 315.103C1095.29 348.055 1015.12 382.13 931.019 404.456C922.517 406.714 913.972 408.861 905.622 410.833C859.047 421.824 813.737 428.82 770.952 431.625C723.042 434.764 677.809 432.664 636.518 425.382C595.994 418.234 557.836 405.928 523.106 388.806C489.443 372.21 459.055 351.13 432.785 326.147C431.587 325.005 430.379 323.836 429.192 322.676C411.001 304.869 394.913 285.904 379.349 267.565C373.048 260.137 366.529 252.457 359.982 244.981C335.18 216.628 312.449 194.392 288.436 175.007C285.245 172.431 281.952 169.847 278.642 167.322C218.419 121.4 139.844 84.5204 51.3998 60.6732C-54.7 32.1437 -162.924 23.6685 -253.329 36.8149C-346.13 50.4215 -440.576 99.7361 -432.817 164.332L-433.169 164.35C-435.039 148.769 -431.116 133.47 -421.501 118.877C-412.629 105.411 -399.076 92.7402 -381.216 81.2183C-348.229 59.9357 -301.647 43.6743 -253.41 36.6014C-205.751 29.6716 -153.576 28.6633 -98.3303 33.6076C-48.6492 38.0499 1.77504 47.0886 51.5407 60.4706C140.034 84.3333 218.659 121.232 278.906 167.179C282.217 169.704 285.517 172.293 288.708 174.868C312.731 194.264 335.476 216.507 360.285 244.871C366.836 252.347 373.351 260.03 379.656 267.457C395.212 285.792 411.301 304.752 429.485 322.552C430.672 323.712 431.876 324.879 433.074 326.022C486.492 376.82 556.871 411.102 636.609 425.164C715.322 439.045 805.788 434.152 905.495 410.622C913.839 408.649 922.379 406.505 930.878 404.249C1014.95 381.931 1095.11 347.863 1172.62 314.916C1176.71 313.179 1180.79 311.444 1184.87 309.712C1195.3 305.298 1205.77 300.829 1215.9 296.508C1297.29 261.784 1374.17 228.986 1460.19 209.374C1487.97 203.004 1512.64 199.431 1535.59 198.447C1564.32 197.216 1590.74 200.173 1614.11 207.23C1634.19 213.313 1654.27 222.615 1675.49 235.672C1694.2 247.191 1711.41 260.076 1728.04 272.535C1737.78 279.828 1746.97 286.719 1756.26 293.188C1843.96 354.318 1935.29 420.116 2035.48 494.343L2035.21 494.486Z" fill="#FFE492" fill-opacity="0.8"/>
<path d="M2031.48 492.413C1940.04 423.247 1847.84 354.807 1757.46 288.997C1748.26 282.336 1739.14 275.18 1729.49 267.605C1698.09 242.963 1662.5 215.034 1618.04 201.758C1575.66 189.129 1525.31 191.13 1464.12 207.873C1391.36 227.716 1326.97 256.893 1258.81 287.782C1237.46 297.455 1215.38 307.46 1193.12 317.111C1154.25 333.993 1112.21 351.857 1068.14 368.127C1020.94 385.553 977.823 398.724 936.316 408.396C927.596 410.428 918.819 412.341 910.222 414.078C862.661 423.683 816.118 429.149 771.886 430.324C722.919 431.623 676.972 427.634 635.314 418.459C558.386 401.306 491.152 365.417 435.48 311.788C434.293 310.643 433.095 309.472 431.915 308.312C414.647 291.291 398.841 273.335 383.555 255.968C376.36 247.795 368.921 239.342 361.437 231.115C335.691 202.768 312.503 180.728 288.462 161.755C285.225 159.201 281.89 156.641 278.54 154.143C217.585 108.663 138.432 72.345 49.6429 49.1075C-57.1437 21.2164 -165.66 13.5007 -255.917 27.3802C-349.282 41.8189 -441.36 90.4797 -436.701 155.547L-437.053 155.556C-438.169 139.97 -433.739 124.689 -423.888 110.133C-414.759 96.6501 -401.129 83.9659 -383.371 72.4352C-366.642 61.5716 -346.813 52.0728 -324.438 44.2007C-302.714 36.5599 -279.691 30.8275 -256.005 27.1645C-208.399 19.845 -156.168 18.4449 -100.76 23.0083C-50.9591 27.1095 -0.312921 35.8202 49.7767 48.9028C138.619 72.1535 217.818 108.493 278.808 153.995C282.157 156.496 285.5 159.058 288.736 161.612C312.788 180.596 335.987 202.645 361.743 231.001C369.228 239.229 376.666 247.682 383.862 255.858C399.147 273.223 414.95 291.177 432.211 308.191C433.388 309.353 434.589 310.522 435.772 311.667C491.402 365.254 558.577 401.114 635.43 418.25C714.593 435.684 809.578 434.17 910.113 413.867C918.703 412.13 927.48 410.219 936.193 408.19C1028.99 386.566 1113.9 351.249 1192.91 316.928C1215.18 307.277 1237.25 297.274 1258.6 287.602C1326.78 256.706 1391.18 227.523 1463.97 207.671C1525.26 190.901 1575.7 188.9 1618.19 201.558C1638.1 207.503 1657.87 216.824 1678.63 230.047C1696.94 241.708 1713.63 254.804 1729.76 267.466C1739.42 275.041 1748.53 282.195 1757.73 288.852C1848.12 354.664 1940.31 423.104 2031.75 492.272L2031.48 492.413Z" fill="#FFE492" fill-opacity="0.8"/>
<path d="M2027.74 490.34C1937.7 420.79 1847.26 351.589 1758.93 284.657C1750.02 277.923 1741.17 270.641 1731.81 262.931C1701.18 237.715 1666.47 209.133 1622.12 196.081C1579.23 183.474 1528.79 186.771 1467.92 206.159C1404.15 226.442 1345.56 255.081 1288.89 282.781C1260.48 296.669 1231.1 311.031 1201.17 324.32C1153.91 345.317 1114.16 361.334 1076.05 374.729C1029.05 391.246 985.081 403.547 941.623 412.335C932.702 414.14 923.686 415.817 914.828 417.321C868.676 425.151 823.355 429.113 780 429.116C777.591 429.116 775.196 429.103 772.801 429.078C722.676 428.568 676.017 422.664 634.119 411.534C613.896 406.131 594.092 399.274 575.26 391.151C557.558 383.517 540.163 374.524 523.557 364.425C493.68 346.255 465.751 324.338 438.181 297.427C436.997 296.269 435.817 295.109 434.644 293.944C418.648 278.066 403.514 261.468 388.88 245.415C380.431 236.15 371.696 226.567 362.898 217.24C335.811 188.504 312.865 167.3 288.489 148.494C285.21 145.965 281.833 143.429 278.441 140.955C216.746 95.9261 137.019 60.1674 47.8849 37.5397C-59.5849 10.2892 -168.397 3.33079 -258.507 17.9433C-350.12 32.8421 -442.079 81.8727 -440.583 146.757L-440.935 146.76C-441.632 116.537 -422.469 87.7987 -385.52 63.6521C-368.819 52.7379 -349.096 43.1708 -326.893 35.2107C-305.289 27.4664 -282.312 21.5844 -258.595 17.7276C-211.044 10.0163 -158.757 8.22658 -103.187 12.4091C-53.2665 16.1669 -2.39497 24.5518 48.0152 37.3328C137.206 59.9759 216.979 95.7566 278.712 140.812C282.104 143.288 285.488 145.826 288.767 148.356C313.154 167.173 336.11 188.383 363.205 217.13C372.002 226.46 380.741 236.042 389.186 245.307C403.82 261.358 418.95 277.953 434.944 293.827C436.117 294.992 437.293 296.152 438.476 297.308C497.061 354.494 561.101 391.792 634.256 411.331C735.58 438.249 842.709 429.331 914.737 417.11C923.587 415.606 932.597 413.931 941.514 412.126C1041.46 391.913 1132.67 354.488 1200.96 324.142C1230.89 310.857 1260.27 296.495 1288.68 282.609C1345.36 254.905 1403.96 226.257 1467.76 205.965C1495 197.289 1519.65 191.962 1543.12 189.682C1572.06 186.868 1598.69 188.955 1622.26 195.885C1642.12 201.73 1661.71 211.125 1682.13 224.606C1700.12 236.484 1716.38 249.862 1732.09 262.802C1741.45 270.509 1750.29 277.788 1759.2 284.518C1847.53 351.45 1937.97 420.651 2028.02 490.201L2027.74 490.34Z" fill="#FFE492" fill-opacity="0.8"/>
<path d="M2024.01 488.266L1760.4 280.317C1751.79 273.526 1743.24 266.136 1734.19 258.315C1704.32 232.502 1670.46 203.246 1626.2 190.41C1583.39 177.999 1531.42 182.723 1471.73 204.452C1414.34 225.341 1362 253.12 1311.38 279.985C1278.39 297.497 1244.27 315.603 1209.22 331.538C1103.86 379.435 1011.78 407.725 919.442 420.57C881.136 425.897 843.349 428.578 806.703 428.578C795.595 428.578 784.599 428.332 773.72 427.839C722.411 425.514 675.041 417.699 632.928 404.614C593.898 392.485 558.192 375.363 523.782 352.266C496.303 333.823 469.963 311.836 440.889 283.071C425.543 267.891 410.684 252.118 396.314 236.865C363.792 202.348 330.164 166.655 288.531 135.242C224.67 87.061 140.847 49.277 46.1235 25.9736C-62.026 -0.634153 -171.134 -6.83755 -261.096 8.50805C-348.194 23.365 -442.728 70.2141 -444.468 137.972L-444.82 137.967C-444.041 107.681 -424.28 78.9468 -387.672 54.8707C-354.573 33.1015 -309.653 16.5606 -261.187 8.29452C-213.69 0.193556 -161.346 -1.98798 -105.618 1.81375C-55.5773 5.22584 -4.48032 13.2872 46.2539 25.7688C93.1244 37.2995 137.639 52.4778 178.564 70.8833C219.831 89.4429 256.921 111.047 288.799 135.097C330.45 166.521 364.088 202.222 396.617 236.748C410.987 251.999 425.846 267.77 441.188 282.948C483.607 324.919 543.755 376.653 633.087 404.412C735.534 436.246 845.311 430.65 919.364 420.35C1011.65 407.514 1103.69 379.235 1209.01 331.356C1244.05 315.427 1278.16 297.321 1311.15 279.813C1361.78 252.944 1414.14 225.158 1471.55 204.259C1531.35 182.492 1583.43 177.763 1626.35 190.207C1646.16 195.955 1665.57 205.432 1685.66 219.184C1703.35 231.289 1719.17 244.962 1734.47 258.183C1743.53 266.004 1752.07 273.39 1760.68 280.179L2024.29 488.127L2024.01 488.266Z" fill="#FFE492" fill-opacity="0.8"/>
<path d="M2021.89 472.279C1954.76 414.379 1897.17 367.396 1840.64 324.423C1813.2 303.548 1785.17 283.001 1757.34 263.351C1748.93 257.408 1740.59 251.086 1731.76 244.391C1709.57 227.566 1686.62 210.169 1660.22 197.258C1646.04 190.313 1632.39 185.34 1618.5 182.056C1575.83 171.874 1525.78 178.606 1469.73 202.066C1440.72 214.189 1414.3 227.985 1392.29 239.881C1368.98 252.475 1346 266.363 1323.76 279.793C1291.81 299.099 1258.76 319.061 1223.24 336.205C1201.63 346.668 1179.72 356.017 1158.12 363.995C1114.9 379.955 1068.52 393.105 1020.25 403.082C990.431 409.178 960.466 413.785 931.195 416.774C905.967 419.341 880.693 420.823 856.071 421.177C819.221 421.71 783.317 419.678 749.359 415.132C713.251 410.298 679.081 402.582 647.799 392.196C619.904 382.935 593.557 371.275 567.251 356.546C518.232 329.121 479.134 297.411 450.55 272.848C436.508 260.725 422.797 248.362 409.536 236.407C371.355 201.976 335.289 169.455 290.159 140.488C253.351 117.017 211.354 96.7621 165.326 80.2828C129.954 67.6185 91.4837 57.2611 50.9844 49.497C41.3377 47.65 31.5078 45.9286 21.7766 44.3854C-20.1209 37.7528 -67.2873 33.4337 -118.409 31.5472C-169.95 29.6012 -214.541 31.2852 -254.724 36.7005C-277.441 39.7384 -299.449 44.5043 -320.148 50.864C-393.222 73.3178 -440.146 111.011 -445.668 151.697L-446.108 151.673C-444.636 140.827 -440.315 130.143 -433.267 119.916C-426.572 110.201 -417.376 100.832 -405.937 92.0689C-384.322 75.5147 -354.723 61.1795 -320.342 50.6153C-299.611 44.2446 -277.567 39.472 -254.815 36.4298C-214.591 31.01 -169.964 29.3238 -118.381 31.272C-67.231 33.1586 -20.0399 37.482 21.8858 44.1191C31.6276 45.6644 41.4609 47.3859 51.1147 49.235C91.6457 57.0036 130.148 67.3697 165.547 80.0451C211.608 96.5354 253.639 116.808 290.465 140.294C335.624 169.279 371.696 201.808 409.892 236.248C423.149 248.204 436.86 260.565 450.899 272.685C479.469 297.237 518.549 328.932 567.54 356.339C593.817 371.052 620.137 382.702 647.999 391.952C709.222 412.277 779.221 422.018 856.057 420.902C880.658 420.548 905.914 419.066 931.121 416.501C960.371 413.512 990.315 408.909 1020.11 402.818C1068.35 392.848 1114.7 379.706 1157.89 363.755C1179.48 355.784 1201.37 346.439 1222.97 335.985C1258.47 318.85 1291.51 298.892 1323.45 279.593C1345.69 266.16 1368.68 252.268 1392 239.669C1414.02 227.767 1440.45 213.966 1469.48 201.835C1494.44 191.389 1518.6 184.173 1541.31 180.385C1569.2 175.731 1595.22 176.207 1618.65 181.798C1632.59 185.093 1646.28 190.08 1660.49 197.04C1686.93 209.971 1709.89 227.379 1732.1 244.215C1740.92 250.907 1749.26 257.229 1757.67 263.169C1785.51 282.82 1813.54 303.37 1840.98 324.25C1897.51 367.226 1955.11 414.214 2022.25 472.119L2021.89 472.279Z" fill="#FFE492" fill-opacity="0.8"/>
<path d="M2019.76 456.289C1957.53 397.409 1899.11 348.139 1841.19 305.664C1812.94 284.916 1783.7 264.972 1754.29 246.386C1746.49 241.455 1738.78 236.33 1730.63 230.906C1706.2 214.662 1680.94 197.866 1652.65 186.245C1638.36 180.352 1624.67 176.249 1610.79 173.699C1557.65 163.934 1503.66 182.434 1467.73 199.673C1442.27 211.851 1419.01 225.621 1395.46 239.835C1374.85 252.277 1355.45 265.661 1334.92 279.829C1304.44 300.86 1272.93 322.608 1237.27 340.868C1216.1 351.762 1194.02 361.182 1171.62 368.865C1129.9 383.178 1084.22 394.292 1031.96 402.847C1002.71 407.633 972.762 411.042 942.937 412.977C917.773 414.591 892.654 415.168 868.275 414.686C832.006 413.977 796.553 410.789 762.897 405.213C727.551 399.355 693.824 390.797 662.658 379.774C635.352 370.119 608.986 358.14 582.054 343.153C533.141 315.973 491.239 285.841 460.204 262.625C448.715 254.031 437.409 245.384 426.474 237.019C382.924 203.708 341.791 172.242 291.786 145.734C254.414 125.921 212.457 109.169 167.087 95.9434C132.758 85.9361 96.3722 78.4383 55.8553 73.0208C46.5044 71.7726 36.9916 70.6477 27.5844 69.6769C-13.7355 65.4349 -57.8343 63.8301 -111.189 62.1703C-149.649 60.9134 -199.996 60.0856 -248.363 64.889C-271.27 67.1212 -293.413 70.9977 -314.182 76.4064C-387.305 95.4547 -436.909 128.73 -446.876 165.422L-447.397 165.367C-444.756 155.637 -439.403 146.095 -431.496 137.001C-423.959 128.336 -414.055 120.028 -402.062 112.302C-379.272 97.6231 -348.954 85.104 -314.386 76.1005C-293.578 70.6807 -271.393 66.7976 -248.448 64.561C-200.034 59.751 -149.649 60.5809 -111.164 61.8379C-57.7921 63.4977 -13.6792 65.1025 27.6689 69.3467C37.0832 70.3197 46.6031 71.4446 55.9645 72.6928C96.5202 78.1169 132.941 85.6213 167.309 95.6396C212.725 108.879 254.717 125.644 292.128 145.476C342.168 172.004 383.319 203.479 426.882 236.803C437.815 245.166 449.12 253.813 460.609 262.405C491.637 285.612 533.521 315.733 582.406 342.9C609.307 357.871 635.644 369.838 662.919 379.482C724.201 401.154 793.302 412.885 868.293 414.351C892.651 414.831 917.745 414.256 942.885 412.643C972.681 410.71 1002.61 407.305 1031.83 402.521C1084.04 393.975 1129.69 382.87 1171.37 368.57C1193.74 360.896 1215.8 351.489 1236.94 340.606C1272.57 322.361 1304.07 300.623 1334.53 279.602C1355.07 265.428 1374.47 252.041 1395.1 239.592C1418.66 225.37 1441.93 211.596 1467.41 199.405C1490.7 188.228 1513.68 180.189 1535.7 175.505C1562.41 169.825 1587.72 169.11 1610.95 173.376C1624.88 175.936 1638.61 180.053 1652.94 185.963C1681.28 197.606 1706.56 214.418 1731.01 230.675C1739.17 236.097 1746.87 241.219 1754.67 246.148C1784.09 264.741 1813.34 284.692 1841.6 305.446C1899.53 347.932 1957.96 397.211 2020.21 456.104L2019.76 456.289Z" fill="#FFE492" fill-opacity="0.8"/>
<path d="M2017.64 440.299C1959.39 379.641 1901.85 329.465 1841.74 286.906C1812.67 266.286 1782.22 246.948 1751.24 229.423C1744.61 225.676 1737.8 221.7 1731.2 217.857C1703.97 201.976 1675.82 185.556 1645.08 175.234C1630.65 170.356 1616.92 167.12 1603.1 165.344C1550.07 158.522 1499.13 178.946 1465.73 197.279C1443.09 209.655 1422.4 223.682 1402.39 237.248L1398.64 239.789C1380.47 252.097 1363.43 265.595 1345.38 279.889C1316.65 302.648 1286.94 326.181 1251.29 345.531C1230.55 356.872 1208.29 366.362 1185.12 373.737C1144.73 386.595 1099.77 395.77 1043.66 402.612C1014.64 406.149 984.701 408.359 954.673 409.178C929.572 409.836 904.608 409.506 880.468 408.192C807.387 404.232 739.103 390.491 677.51 367.353C650.884 357.35 624.501 345.055 596.857 329.76C550.075 303.932 508.466 277.383 469.861 252.405C464.684 249.056 459.563 245.73 454.481 242.43C401.753 208.202 351.952 175.87 293.424 150.986C255.214 134.74 213.299 121.493 168.848 111.609C136.213 104.353 100.846 99.4263 60.7301 96.547C51.6892 95.902 42.4933 95.3715 33.396 94.9708C10.5102 93.9802 -13.7633 93.8195 -39.4633 93.65C-60.1056 93.5135 -81.4488 93.3726 -103.972 92.7981C-147.472 91.5939 -196.773 90.2313 -242.009 93.0843C-265.349 94.557 -287.626 97.542 -308.222 101.958C-381.318 117.632 -433.605 146.493 -448.091 179.164L-448.686 179.06C-444.868 170.446 -438.486 162.044 -429.72 154.086C-421.338 146.476 -410.73 139.225 -398.191 132.535C-374.21 119.74 -343.167 109.042 -308.427 101.592C-287.784 97.1656 -265.462 94.1739 -242.076 92.699C-196.794 89.8439 -147.468 91.2087 -103.951 92.4129C-81.4418 92.9852 -60.0986 93.1283 -39.4633 93.2648C-13.7528 93.4343 10.5278 93.595 33.4347 94.5878C42.5391 94.9906 51.7455 95.5212 60.7935 96.1661C100.958 99.0477 136.368 103.981 169.049 111.248C213.552 121.143 255.513 134.406 293.766 150.669C352.347 175.575 402.172 207.922 454.921 242.166C460.003 245.466 465.128 248.79 470.302 252.141C508.899 277.115 550.494 303.657 597.262 329.476C624.878 344.754 651.233 357.037 677.827 367.027C739.339 390.137 807.535 403.858 880.521 407.813C904.632 409.125 929.572 409.456 954.645 408.797C984.641 407.979 1014.55 405.771 1043.54 402.237C1099.6 395.402 1144.5 386.238 1184.84 373.398C1207.96 366.038 1230.18 356.566 1250.88 345.244C1286.48 325.919 1316.18 302.4 1344.89 279.653C1362.95 265.353 1380 251.848 1398.19 239.531L1401.93 236.991C1421.96 223.417 1442.66 209.382 1465.32 196.992C1498.82 178.6 1549.94 158.117 1603.22 164.969C1617.1 166.755 1630.89 170.002 1645.37 174.9C1676.18 185.244 1704.36 201.681 1731.62 217.579C1738.21 221.423 1745.03 225.399 1751.64 229.143C1782.65 246.677 1813.11 266.027 1842.19 286.658C1902.33 329.234 1959.89 379.427 2018.15 440.105L2017.64 440.299Z" fill="#FFE492" fill-opacity="0.8"/>
<path d="M2015.51 424.306C1962.03 362.732 1903.75 310.192 1842.29 268.151C1812.41 247.661 1780.75 228.925 1748.19 212.463C1743.49 210.086 1738.68 207.618 1734.02 205.232C1703.25 189.468 1671.42 173.165 1637.53 164.227C1622.98 160.351 1609.21 157.984 1595.42 156.989C1542.54 153.177 1494.62 175.492 1463.74 194.883C1444.56 206.863 1427.25 220.186 1410.51 233.07C1407.62 235.3 1404.72 237.526 1401.82 239.742C1385.9 251.92 1371.01 265.525 1355.25 279.926C1328.46 304.409 1300.75 329.725 1265.32 350.197C1244.51 362.219 1222.7 371.513 1198.62 378.614C1148.26 393.467 1097.94 398.964 1055.35 402.385C1026.55 404.696 996.627 405.709 966.408 405.387C941.384 405.09 916.572 403.851 892.665 401.707C821.778 395.365 754.388 379.629 692.37 354.937C666.564 344.665 640.167 332.052 611.663 316.376C582.871 300.579 556.041 285.379 530.091 270.678C512.456 260.686 495.797 251.249 479.529 242.195C418.035 207.968 361.708 177.876 295.076 156.245C256.045 143.576 214.172 133.829 170.619 127.275C139.404 122.578 106.037 120.291 65.6149 120.073C56.8945 120.033 48.012 120.097 39.2176 120.264C25.8587 120.535 12.0385 121.101 -2.58832 121.702C-30.6585 122.853 -62.4797 124.158 -96.7556 123.427C-109.808 123.148 -123.125 122.754 -136.005 122.371C-169.132 121.387 -203.387 120.37 -235.659 121.279C-259.359 121.948 -281.772 124.044 -302.27 127.509C-375.242 139.847 -430.21 164.298 -449.313 192.913L-449.965 192.744C-444.964 185.25 -437.553 177.99 -427.942 171.164C-418.711 164.608 -407.398 158.416 -394.325 152.76C-369.132 141.864 -337.367 132.986 -302.461 127.084C-281.913 123.61 -259.45 121.508 -235.698 120.839C-203.391 119.927 -169.122 120.947 -135.976 121.931C-123.1 122.314 -109.783 122.708 -96.7345 122.987C-62.4902 123.718 -30.6938 122.415 -2.63764 121.264C11.9962 120.663 25.82 120.097 39.193 119.826C47.9979 119.659 56.8874 119.595 65.6184 119.635C106.097 119.85 139.513 122.144 170.781 126.848C214.387 133.411 256.316 143.169 295.396 155.856C325.495 165.625 355.995 178.003 388.641 193.695C417.866 207.741 446.296 223.111 479.994 241.867C496.262 250.923 512.921 260.36 530.559 270.352C556.506 285.051 583.336 300.251 612.121 316.046C640.596 331.706 666.966 344.306 692.739 354.567C754.674 379.226 821.968 394.94 892.756 401.273C916.635 403.415 941.416 404.652 966.412 404.949C996.595 405.271 1026.49 404.26 1055.25 401.949C1097.79 398.534 1148.04 393.044 1198.31 378.218C1222.32 371.136 1244.08 361.867 1264.83 349.876C1300.2 329.439 1327.89 304.143 1354.66 279.679C1370.44 265.269 1385.33 251.658 1401.27 239.467C1404.17 237.25 1407.06 235.025 1409.96 232.797C1426.71 219.904 1444.03 206.572 1463.23 194.577C1483.32 181.961 1503.94 172.256 1524.5 165.731C1548.85 158.002 1572.74 154.916 1595.49 156.558C1609.35 157.557 1623.18 159.935 1637.79 163.827C1671.78 172.788 1703.64 189.111 1734.45 204.895C1739.11 207.281 1743.92 209.749 1748.62 212.124C1781.2 228.599 1812.89 247.352 1842.79 267.858C1875.43 290.182 1907.39 315.616 1937.78 343.455C1964.65 368.059 1991 395.193 2016.11 424.099L2015.51 424.306Z" fill="#FFE492" fill-opacity="0.8"/>
<path d="M2013.38 408.308C1963.89 344.969 1906.51 291.502 1842.84 249.393C1812.15 229.032 1779.28 210.902 1745.15 195.501C1743.53 194.768 1741.91 194.035 1740.28 193.3C1704.8 177.265 1668.1 160.685 1630 153.22C1615.23 150.328 1601.41 148.828 1587.76 148.635C1535.08 147.891 1490.17 172.07 1461.76 192.483C1445.05 204.426 1430.21 217.515 1415.86 230.173C1412.31 233.303 1408.64 236.539 1405.02 239.691C1391.23 251.697 1378.4 265.348 1364.83 279.802C1340.14 306.093 1314.61 333.277 1279.36 354.859C1258.96 367.345 1236.97 376.71 1212.13 383.49C1163.17 396.846 1113.47 400.352 1067.05 402.153C1038.43 403.263 1008.51 403.073 978.143 401.592C953.2 400.337 928.546 398.191 904.861 395.214C836.387 386.629 769.892 368.9 707.232 342.516C682.138 331.952 656.477 319.391 626.48 302.987C569.47 271.895 527.135 249.996 489.218 231.982C413.802 196.155 356.242 175.077 296.759 161.504C256.936 152.417 215.105 146.171 172.422 142.94C142.809 140.699 111.383 140.899 70.5278 143.596C62.156 144.155 53.5906 144.813 45.0674 145.555C37.0162 146.266 28.8381 147.081 20.1775 147.941C-11.7985 151.122 -48.0433 154.728 -89.5252 154.054C-111.39 153.7 -133.723 152.729 -155.319 151.791C-179.864 150.726 -205.243 149.623 -229.306 149.473C-253.431 149.324 -275.983 150.53 -296.315 153.062C-369.044 162.111 -426.699 182.155 -450.539 206.675L-451.215 206.418C-445.024 200.047 -436.585 193.93 -426.135 188.235C-416.048 182.736 -404.038 177.604 -390.436 172.979C-364.015 163.993 -331.521 156.936 -296.47 152.575C-276.081 150.039 -253.481 148.828 -229.299 148.978C-205.215 149.128 -179.822 150.231 -155.267 151.298C-133.677 152.236 -111.354 153.207 -89.5076 153.561C-48.0997 154.233 -11.8936 150.631 20.0472 147.455C28.7113 146.592 36.8964 145.78 44.9512 145.066C53.4849 144.324 62.0574 143.666 70.4362 143.105C111.355 140.406 142.834 140.204 172.51 142.451C215.253 145.687 257.144 151.941 297.023 161.041C356.587 174.633 414.206 195.733 489.69 231.59C527.621 249.611 569.97 271.516 626.994 302.617C656.97 319.008 682.603 331.556 707.669 342.109C770.244 368.455 836.64 386.16 905.013 394.732C928.666 397.704 953.292 399.846 978.199 401.101C1008.53 402.58 1038.41 402.769 1067 401.662C1113.34 399.864 1162.97 396.366 1211.81 383.041C1236.56 376.287 1258.48 366.954 1278.8 354.511C1313.97 332.976 1339.47 305.82 1364.14 279.558C1377.72 265.095 1390.55 251.433 1404.37 239.41C1407.99 236.259 1411.66 233.023 1415.21 229.893C1429.57 217.224 1444.41 204.126 1461.16 192.164C1479.69 178.842 1499.13 168.304 1518.92 160.841C1542.1 152.1 1565.27 147.831 1587.77 148.146C1601.51 148.34 1615.39 149.848 1630.23 152.753C1668.46 160.245 1705.21 176.847 1740.74 192.906C1742.37 193.641 1743.99 194.377 1745.61 195.107C1779.78 210.526 1812.68 228.678 1843.42 249.06C1907.14 291.207 1964.56 344.715 2014.09 408.099L2013.38 408.308Z" fill="#FFE492" fill-opacity="0.8"/>
<path d="M1084.57 401.925C1082.6 401.925 1080.65 401.922 1078.73 401.916C1050.26 401.841 1020.36 400.454 989.868 397.791C965.017 395.578 940.518 392.525 917.051 388.719C883.522 383.29 849.873 375.489 817.03 365.532C785.315 355.916 753.374 343.994 722.092 330.092C691.44 316.473 662.81 301.297 641.29 289.596C590.94 262.295 543.034 239.476 498.904 221.771C427.428 193.096 363.733 175.615 298.446 166.759C259.06 161.416 216.803 158.599 176.117 158.599C175.487 158.599 174.86 158.599 174.229 158.601C139.277 158.676 106.093 162.735 75.4449 167.111C67.4676 168.258 59.2156 169.511 50.9178 170.838C46.3709 171.573 41.817 172.331 36.9989 173.132C3.0153 178.792 -35.5046 185.204 -82.3012 184.678C-110.801 184.357 -139.91 182.512 -168.062 180.726C-186.239 179.573 -205.032 178.382 -222.959 177.662C-247.602 176.674 -270.28 176.991 -290.369 178.609C-362.711 184.429 -423.053 200.068 -451.789 220.443L-452.451 220.08C-437.712 209.63 -415.541 200.583 -386.555 193.186C-358.872 186.124 -325.649 180.894 -290.482 178.065C-270.34 176.445 -247.602 176.123 -222.902 177.116C-204.958 177.836 -186.154 179.029 -167.97 180.183C-139.836 181.968 -110.745 183.813 -82.2836 184.132C-35.6068 184.658 2.84624 178.254 36.7735 172.606C41.5951 171.802 46.149 171.045 50.6994 170.31C59.0043 168.982 67.2633 167.728 75.2477 166.581C105.949 162.198 139.189 158.132 174.226 158.055C215.56 157.965 258.574 160.791 298.633 166.226C332.328 170.798 364.994 177.528 398.492 186.8C430.753 195.731 463.754 207.019 499.375 221.313C543.541 239.031 591.482 261.868 641.864 289.187C663.366 300.881 691.975 316.046 722.595 329.65C786.072 357.858 851.57 377.554 917.269 388.193C940.705 391.994 965.172 395.043 989.988 397.253C1020.44 399.913 1050.3 401.299 1078.73 401.372C1123.23 401.487 1174.9 400.549 1225.29 387.858C1250.8 381.435 1272.86 372.041 1292.75 359.144C1327.68 336.492 1350.83 307.419 1373.23 279.301C1384.75 264.838 1395.63 251.176 1407.46 239.351C1411.25 235.562 1415.07 231.659 1418.77 227.884C1431.27 215.129 1444.19 201.943 1459.07 189.754C1476.08 175.732 1494.34 164.357 1513.32 155.948C1535.34 146.198 1557.78 140.743 1580.03 139.735C1593.76 139.112 1607.7 139.748 1622.64 141.681C1662.58 146.846 1702.17 161.85 1742.59 178.089C1777.83 192.248 1812.91 210.288 1844.02 230.261C1878.58 252.383 1911.06 278.334 1940.54 307.394C1966.81 333.284 1990.87 361.783 2012.05 392.1L2011.25 392.32C1965.75 327.213 1909.28 272.818 1843.39 230.646C1812.32 210.702 1777.3 192.689 1742.11 178.554C1701.77 162.343 1662.25 147.367 1622.46 142.221C1607.6 140.299 1593.74 139.667 1580.09 140.286C1539.21 142.141 1496.48 159.827 1459.77 190.089C1444.92 202.256 1432.01 215.431 1419.52 228.172C1415.82 231.95 1412 235.855 1408.21 239.643C1396.4 251.447 1385.52 265.098 1374.02 279.547C1363.03 293.343 1351.67 307.61 1338.63 321.324C1323.85 336.873 1309.05 349.367 1293.39 359.527C1273.41 372.482 1251.25 381.917 1225.62 388.371C1203.02 394.064 1178.73 397.826 1151.36 399.877C1128.18 401.605 1104.9 401.925 1084.57 401.925Z" fill="#FFE492" fill-opacity="0.8"/>
<path d="M1141.05 403.027C1123.09 403.027 1105.84 402.358 1090.41 401.68C1062.03 400.434 1032.15 397.848 1001.58 393.991C976.836 390.823 952.492 386.865 929.226 382.222C865.517 369.536 802.618 348.418 736.937 317.668C708.292 304.259 681.289 289.832 656.093 276.205C606.348 249.382 556.724 227.633 508.589 211.558C437.797 187.918 371.562 175.351 300.144 172.009C259.451 170.105 216.539 170.882 176.043 174.254C142.148 177.076 110.193 183.887 80.3614 190.619C72.8983 192.312 64.9597 194.161 56.7711 196.114C54.7249 196.605 52.661 197.104 50.5689 197.608C16.212 205.912 -22.6637 215.307 -72.5561 215.307C-73.3979 215.307 -74.2361 215.305 -75.0849 215.298C-108.84 215.085 -143.302 212.073 -176.634 209.159C-189.849 208.003 -203.514 206.81 -216.626 205.844C-242.238 203.959 -264.42 203.402 -284.442 204.146C-357.266 206.854 -418.735 217.808 -453.082 234.206L-453.67 233.724C-436.69 225.618 -412.139 218.581 -382.677 213.372C-353.698 208.25 -319.75 204.851 -284.502 203.541C-264.423 202.795 -242.185 203.352 -216.517 205.241C-203.391 206.207 -189.722 207.402 -176.504 208.556C-143.204 211.466 -108.773 214.475 -75.0813 214.689C-24.1499 215.014 15.3597 205.463 50.2132 197.038C52.3017 196.534 54.3691 196.034 56.4154 195.541C64.6111 193.587 72.5532 191.737 80.0233 190.045C109.904 183.3 141.919 176.48 175.906 173.649C216.465 170.272 259.447 169.493 300.207 171.399C335.599 173.055 369.344 176.964 403.366 183.348C438.406 189.924 472.971 198.973 509.036 211.019C557.231 227.115 606.919 248.891 656.716 275.741C681.902 289.363 708.888 303.782 737.507 317.177C803.101 347.886 865.905 368.972 929.512 381.639C952.743 386.273 977.055 390.226 1001.76 393.39C1032.29 397.242 1062.13 399.827 1090.47 401.068C1138.15 403.159 1188.87 404.234 1238.77 392.661C1265.03 386.57 1287.25 377.117 1306.69 363.762C1341.34 339.972 1362.91 307.522 1381.94 278.891C1391.51 264.485 1400.56 250.879 1410.53 239.28C1414.13 235.095 1417.76 230.77 1421.26 226.587C1432.22 213.5 1443.56 199.968 1456.97 187.33C1472.49 172.608 1489.57 160.397 1507.72 151.037C1528.57 140.287 1550.29 133.648 1572.27 131.308C1586.01 129.844 1600 129.611 1615.03 130.588C1657.03 133.325 1699.7 146.845 1739.55 161.051C1776.35 174.166 1812.68 191.592 1844.62 211.444C1880.15 233.462 1912.88 259.673 1941.91 289.345C1967.87 315.88 1990.78 345.061 2010.01 376.083L2009.11 376.301C1968.23 310.362 1911.11 253.503 1843.94 211.871C1812.07 192.057 1775.81 174.664 1739.08 161.575C1699.32 147.402 1656.76 133.915 1614.94 131.189C1599.99 130.216 1586.09 130.45 1572.44 131.903C1531.85 136.224 1491.13 156.025 1457.78 187.661C1444.39 200.272 1433.07 213.791 1422.12 226.864C1418.62 231.049 1415 235.375 1411.39 239.564C1401.44 251.136 1392.4 264.73 1382.84 279.12C1363.78 307.795 1342.18 340.298 1307.41 364.167C1287.86 377.595 1265.51 387.101 1239.11 393.227C1216.19 398.541 1191.48 401.618 1163.54 402.629C1155.98 402.915 1148.46 403.027 1141.05 403.027Z" fill="#FFE492" fill-opacity="0.8"/>
<path d="M1176.5 405.412C1176.24 405.412 1175.99 405.412 1175.73 405.412C1150.35 405.372 1125.44 403.43 1102.09 401.445C1073.75 399.036 1043.88 395.248 1013.3 390.189C988.667 386.071 964.478 381.203 941.409 375.726C880.246 361.226 819.995 338.832 751.792 305.246C727.23 293.154 703.059 280.133 679.68 267.543C676.756 265.967 673.83 264.393 670.903 262.819C620.901 236.002 569.554 215.321 518.292 201.351C448.095 182.223 377.3 174.343 301.859 177.259C260.493 178.86 217.62 183.234 177.874 189.908C146.515 195.176 118.571 203.627 85.2956 214.128C78.551 216.265 71.3485 218.572 62.6351 221.39L62.149 221.548C45.3386 227.021 26.2847 233.222 4.91332 237.937C-19.6314 243.353 -43.4435 245.959 -67.8614 245.928C-105.938 245.869 -144.796 241.44 -182.372 237.154C-191.578 236.104 -201.102 235.018 -210.294 234.037C-236.656 231.225 -258.971 229.806 -278.515 229.698C-350.476 229.301 -414.583 235.967 -454.396 247.982L-454.854 247.388C-435.352 241.501 -409.047 236.724 -378.782 233.572C-348.461 230.413 -313.784 228.846 -278.504 229.039C-258.904 229.147 -236.533 230.569 -210.114 233.387C-200.915 234.369 -191.392 235.454 -182.182 236.504C-144.651 240.784 -105.843 245.208 -67.8579 245.268C-67.6888 245.268 -67.5163 245.268 -67.3472 245.268C-13.0136 245.268 28.3803 231.796 61.6631 220.963L62.1526 220.804C70.8695 217.984 78.072 215.677 84.8201 213.54C118.152 203.022 146.145 194.555 177.603 189.272C217.416 182.584 260.359 178.204 301.795 176.601C338.713 175.175 373.535 176.262 408.258 179.93C445.676 183.881 481.808 190.69 518.714 200.748C570.076 214.744 621.511 235.459 671.593 262.319C674.52 263.893 677.447 265.47 680.37 267.046C703.738 279.631 727.903 292.647 752.444 304.731C820.559 338.275 880.722 360.638 941.782 375.114C964.819 380.585 988.973 385.443 1013.57 389.557C1044.11 394.61 1073.94 398.391 1102.23 400.795C1152.9 405.106 1202.5 408.095 1252.27 397.493C1279.28 391.739 1301.65 382.227 1320.66 368.411C1355 343.455 1373.75 308.874 1390.31 278.361C1398.06 264.076 1405.37 250.582 1413.63 239.243C1416.81 234.88 1419.99 230.367 1423.08 226.002C1432.71 212.353 1442.68 198.243 1454.89 184.938C1468.96 169.508 1484.85 156.459 1502.13 146.152C1521.83 134.406 1542.82 126.586 1564.52 122.915C1577.98 120.638 1591.71 119.529 1606.47 119.529C1606.79 119.529 1607.11 119.529 1607.43 119.531C1653.31 119.681 1700.52 132.708 1736.53 144.041C1774.89 156.115 1812.48 172.925 1845.24 192.653C1881.73 214.57 1914.72 241.039 1943.29 271.327C1968.93 298.507 1990.7 328.373 2007.99 360.099L2006.99 360.313C1981.26 313.107 1932.18 245.785 1844.51 193.131C1811.83 173.447 1774.32 156.677 1736.06 144.631C1700.15 133.329 1653.09 120.339 1607.43 120.192C1592.39 120.137 1578.46 121.242 1564.8 123.553C1524.59 130.357 1485.88 152.274 1455.81 185.266C1443.62 198.54 1433.67 212.635 1424.04 226.268C1420.96 230.635 1417.77 235.15 1414.59 239.516C1406.36 250.826 1399.04 264.303 1391.31 278.572C1374.73 309.14 1355.93 343.787 1321.46 368.841C1302.32 382.749 1279.8 392.325 1252.61 398.116C1229.57 403.023 1204.66 405.412 1176.5 405.412Z" fill="#FFE492" fill-opacity="0.8"/>
<path d="M1204.69 408.511C1199.22 408.511 1193.64 408.4 1187.92 408.18C1162.88 407.218 1138.55 404.332 1113.76 401.206C1085.01 397.583 1055.99 392.736 1025.01 386.387C1000.51 381.319 976.478 375.548 953.588 369.227C895.521 353.219 837.867 329.654 766.649 292.821C748.961 283.674 731.281 274.081 714.181 264.802C704.873 259.752 695.251 254.528 685.717 249.428C635.12 222.431 582.058 202.821 528.002 191.141C456.58 175.707 383.175 172.88 303.585 182.5C261.536 187.583 218.702 195.554 179.717 205.551C148.399 213.581 121.118 224.859 92.2343 236.799L90.2374 237.624C85.7257 239.495 81.1648 241.393 76.5475 243.313C73.8884 244.42 71.2116 245.534 68.5103 246.656C51.6681 253.694 33.4771 261.036 12.6164 266.686C-11.6043 273.246 -35.5608 276.474 -60.6303 276.553C-102.366 276.681 -144.936 270.618 -186.101 264.749C-191.976 263.911 -198.055 263.045 -203.954 262.224C-231.612 258.372 -253.417 256.155 -272.583 255.244C-343.312 251.882 -410.06 254.251 -455.719 261.744L-456.012 261.053C-410.233 253.54 -343.347 251.163 -272.495 254.531C-253.276 255.444 -231.415 257.668 -203.704 261.526C-197.801 262.35 -191.722 263.215 -185.844 264.054C-145.183 269.85 -103.151 275.84 -61.9686 275.84C-61.5249 275.84 -61.0811 275.84 -60.6338 275.837C-7.36732 275.67 30.5503 261.656 67.8798 246.062C70.5812 244.939 73.2579 243.825 75.917 242.718C80.5343 240.796 85.0918 238.901 89.607 237.028L91.6039 236.202C120.537 224.242 147.864 212.945 179.284 204.888C218.339 194.872 261.247 186.888 303.37 181.796C383.161 172.152 456.763 174.987 528.379 190.463C582.568 202.174 635.754 221.827 686.463 248.884C695.997 253.987 705.623 259.208 714.932 264.261C732.024 273.537 749.701 283.128 767.377 292.268C838.511 329.059 896.085 352.592 954.05 368.574C976.907 374.883 1000.9 380.648 1025.37 385.707C1056.3 392.047 1085.29 396.887 1113.99 400.504C1157.55 405.997 1211.77 412.834 1265.77 402.303C1293.53 396.89 1316.05 387.318 1334.61 373.04C1368.62 346.888 1384.39 310.106 1398.31 277.656C1404.35 263.558 1410.06 250.242 1416.72 239.192C1419.32 234.886 1421.92 230.432 1424.44 226.124C1432.87 211.677 1441.6 196.739 1452.81 182.531C1465.45 166.384 1480.16 152.496 1496.53 141.251C1515.09 128.51 1535.35 119.513 1556.77 114.509C1570.51 111.298 1584.59 109.319 1599.83 108.458C1620.23 107.304 1641.94 108.537 1666.21 112.218C1686.74 115.335 1708.75 120.173 1733.5 127.013C1773.42 138.044 1812.27 154.239 1845.85 173.847C1883.31 195.66 1916.56 222.391 1944.67 253.293C1969.98 281.121 1990.6 311.671 2005.96 344.099L2004.86 344.302C1972.44 275.84 1915.69 215.49 1845.07 174.371C1811.58 154.816 1772.84 138.667 1733.04 127.669C1679.71 112.933 1637.42 107.053 1599.93 109.171C1584.8 110.025 1570.81 111.991 1557.16 115.179C1506.22 127.081 1472.85 158.547 1453.83 182.846C1442.65 197.018 1433.94 211.939 1425.51 226.369C1422.99 230.679 1420.39 235.135 1417.79 239.443C1411.15 250.46 1405.45 263.761 1399.41 277.841C1385.47 310.361 1369.66 347.221 1335.5 373.491C1316.79 387.882 1294.09 397.53 1266.11 402.987C1247.14 406.686 1226.92 408.511 1204.69 408.511Z" fill="#FFE492" fill-opacity="0.8"/>
<path d="M1229.11 412.064C1191.86 412.064 1156.06 406.083 1125.42 400.967C1096.6 396.155 1067.59 390.141 1036.72 382.583C1012.35 376.574 988.477 369.895 965.76 362.729C897.662 341.275 836.954 310.48 781.497 280.397C770.173 274.255 758.734 267.924 747.675 261.802C732.319 253.3 716.438 244.51 700.526 236.04C649.172 208.776 594.395 190.234 537.719 180.929C464.402 168.894 388.38 171.12 305.31 187.735C262.539 196.29 219.747 207.858 181.558 221.189C152.104 231.47 127.182 244.449 100.799 258.19C98.9291 259.163 97.0554 260.14 95.1712 261.117L94.1498 261.65C87.7363 264.994 81.1044 268.45 74.3809 271.919C58.2713 280.269 40.5311 288.905 20.012 295.502C-3.80715 303.161 -27.8201 306.98 -53.4073 307.178C-98.3196 307.528 -144.095 299.637 -188.359 292.004C-191.462 291.47 -194.551 290.937 -197.625 290.411C-226.816 285.405 -248.11 282.437 -266.663 280.786C-335.617 274.653 -405.014 272.725 -457.062 275.497L-457.167 274.728C-405.035 271.95 -335.536 273.881 -266.491 280.023C-247.884 281.678 -226.544 284.652 -197.301 289.667C-194.227 290.193 -191.138 290.725 -188.032 291.263C-143.852 298.879 -98.1646 306.751 -53.4249 306.408C2.14148 305.976 41.2742 288.073 73.592 271.325C80.3154 267.856 86.9473 264.4 93.3608 261.058L94.3822 260.525C96.2665 259.546 98.1402 258.57 100.01 257.597C126.439 243.832 151.403 230.831 180.956 220.516C219.215 207.16 262.088 195.572 304.933 187.002C344.316 179.126 381.308 174.578 418.017 173.099C458.967 171.45 499.343 173.834 538.029 180.185C594.884 189.518 649.824 208.113 701.322 235.452C717.245 243.927 733.129 252.719 748.489 261.223C759.548 267.345 770.98 273.674 782.3 279.813C837.7 309.864 898.335 340.626 966.309 362.04C988.994 369.195 1012.83 375.865 1037.17 381.866C1067.99 389.412 1096.96 395.417 1125.74 400.223C1169.92 407.602 1224.91 416.786 1279.25 407.122C1307.77 402.05 1330.43 392.419 1348.55 377.679C1382.21 350.296 1394.8 311.251 1405.92 276.8C1410.38 262.958 1414.6 249.884 1419.8 239.148C1421.72 235.177 1423.65 231.073 1425.52 227.104C1432.82 211.58 1440.38 195.526 1450.71 180.132C1461.94 163.254 1475.47 148.523 1490.91 136.351C1508.33 122.617 1527.87 112.443 1548.99 106.109C1562.7 101.997 1576.83 99.1465 1592.2 97.392C1612.89 95.03 1635.86 95.1092 1660.45 97.6276C1681.99 99.8333 1705.54 103.992 1730.45 109.99C1771.92 119.978 1812.03 135.557 1846.44 155.043C1884.88 176.755 1918.39 203.744 1946.03 235.262C1971.01 263.737 1990.49 294.974 2003.92 328.104L2002.72 328.294C1974.27 258.093 1918.47 196.767 1845.61 155.615C1811.32 136.193 1771.34 120.665 1730.01 110.71C1676.43 97.8081 1631.42 93.6982 1592.42 98.1515C1577.17 99.8927 1563.14 102.724 1549.52 106.805C1499.28 121.873 1468.67 155.158 1451.84 180.429C1441.54 195.783 1433.99 211.816 1426.7 227.32C1424.83 231.289 1422.9 235.395 1420.98 239.37C1415.8 250.071 1411.58 263.127 1407.12 276.952C1401.78 293.526 1395.72 312.31 1386.93 329.92C1376.85 350.098 1364.62 365.873 1349.53 378.148C1340.81 385.245 1330.79 391.285 1319.74 396.102C1307.85 401.282 1294.35 405.24 1279.59 407.864C1262.71 410.868 1245.76 412.064 1229.11 412.064Z" fill="#FFE492" fill-opacity="0.8"/>
<path d="M1251.12 415.962C1238.81 415.962 1225.91 415.213 1212.28 413.719C1185.44 410.776 1159.75 405.435 1137.09 400.726C1108.52 394.789 1078.69 387.404 1048.43 378.777C1024.21 371.834 1000.49 364.248 977.932 356.226C913.173 333.229 857.381 302.65 796.345 267.97C790.922 264.888 785.413 261.744 780.088 258.702C759.114 246.729 737.43 234.348 715.336 222.65C663.13 195.068 606.641 177.595 547.436 170.718C472.756 162.043 391.87 169.528 307.036 192.968C263.504 204.996 220.751 220.159 183.4 236.821C155.277 249.366 132.127 264.157 107.618 279.817C105.128 281.409 102.627 283.005 100.113 284.607C93.854 288.601 87.1129 292.887 80.2556 297.177C65.8753 306.205 48.35 316.492 27.4118 324.313C3.97295 333.07 -20.0998 337.484 -46.1766 337.803C-93.9136 338.391 -142.506 328.511 -189.5 318.957L-191.289 318.594C-214.299 313.918 -238.639 309.194 -260.736 306.326C-328.09 297.584 -398.287 291.515 -458.39 289.237L-458.309 288.414C-398.143 290.694 -327.883 296.768 -260.468 305.518C-238.308 308.395 -213.925 313.126 -190.881 317.808L-189.092 318.171C-142.2 327.703 -93.7058 337.559 -46.2012 336.975C8.66071 336.302 46.5502 317.168 79.3222 296.589C86.1795 292.301 92.9136 288.015 99.1722 284.024C101.687 282.424 104.187 280.826 106.678 279.236C131.229 263.549 154.422 248.732 182.636 236.145C220.057 219.45 262.892 204.258 306.504 192.208C346.306 181.212 385.474 173.635 422.913 169.69C465.691 165.184 507.67 165.255 547.683 169.902C607.113 176.805 663.81 194.339 716.192 222.017C738.303 233.725 759.999 246.11 780.982 258.09C786.308 261.13 791.816 264.274 797.24 267.355C858.216 302.003 913.948 332.548 978.591 355.506C1001.12 363.515 1024.81 371.09 1048.98 378.024C1079.2 386.638 1108.98 394.012 1137.51 399.94C1182.23 409.235 1237.88 420.798 1292.76 411.938C1322.03 407.212 1344.85 397.523 1362.51 382.317C1395.8 353.666 1405.43 310.482 1413.18 275.782C1416.19 262.266 1419.04 249.5 1422.9 239.11C1424.11 235.834 1425.34 232.46 1426.53 229.195C1432.69 212.236 1439.07 194.698 1448.63 177.739C1463.4 151.347 1491.45 116.041 1541.23 97.7195C1554.98 92.6608 1569.16 88.9362 1584.59 86.3342C1624.95 79.4285 1673.01 81.6629 1727.42 92.9712C1770.45 101.915 1811.82 116.878 1847.06 136.243C1886.47 157.852 1920.24 185.1 1947.42 217.237C1959.89 231.978 1970.91 247.722 1980.18 264.031C1989.04 279.61 1996.34 295.788 2001.9 312.116L2000.6 312.287C1976.14 240.343 1921.3 178.042 1846.18 136.862C1811.08 117.569 1769.87 102.664 1727 93.7527C1672.84 82.495 1625.04 80.2672 1584.94 87.1288C1569.62 89.711 1555.55 93.4071 1541.9 98.4284C1492.46 116.623 1464.57 151.747 1449.88 178.009C1440.34 194.924 1433.97 212.438 1427.81 229.376C1426.63 232.64 1425.4 236.017 1424.18 239.295C1420.34 249.65 1417.49 262.398 1414.48 275.895C1410.59 293.356 1406.17 313.146 1398.63 331.824C1389.96 353.287 1378.5 369.963 1363.58 382.801C1355.07 390.125 1345.12 396.302 1334 401.158C1322.03 406.39 1308.26 410.287 1293.09 412.735C1279.77 414.888 1265.86 415.962 1251.12 415.962Z" fill="#FFE492" fill-opacity="0.8"/>
<path d="M1271.41 420.079C1256.65 420.079 1241.09 418.884 1224.46 416.487C1197.53 412.606 1171.61 406.164 1148.75 400.481C1119.96 393.326 1090.15 384.743 1060.13 374.967C1036.08 367.097 1012.52 358.604 990.104 349.722C928.427 325.298 875.526 293.819 819.52 260.495C816.748 258.846 813.976 257.195 811.197 255.544C785.152 240.064 758.223 224.056 730.149 209.263C677.034 181.33 618.834 164.925 557.164 160.505C479.701 154.951 396.128 167.633 308.762 198.194C265.061 213.48 221.195 232.749 185.242 252.449C158.095 267.323 136.322 284.06 113.271 301.781C110.541 303.879 107.804 305.983 105.047 308.092C99.5383 312.312 92.9839 317.316 86.1231 322.434C73.4158 331.937 56.1017 344.014 34.8078 353.099C11.7423 362.941 -12.3833 367.958 -38.9496 368.431C-60.7859 368.772 -84.8833 366.666 -112.622 361.988C-136.438 357.972 -159.475 352.724 -184.968 346.781C-208.237 341.288 -232.796 335.616 -254.83 331.869C-320.095 320.77 -389.035 311.051 -459.728 302.976L-459.474 302.111C-388.739 310.188 -319.761 319.916 -254.46 331.019C-232.366 334.777 -207.772 340.459 -184.474 345.955C-141.746 355.921 -88.5673 368.328 -38.9883 367.551C17.6945 366.538 54.1223 344.996 85.0418 321.866C91.8991 316.752 98.45 311.751 103.955 307.533C106.713 305.424 109.449 303.32 112.175 301.224C135.265 283.474 157.077 266.709 184.312 251.786C220.339 232.046 264.29 212.741 308.075 197.426C395.705 166.772 479.567 154.057 557.326 159.631C587.139 161.768 616.425 166.732 644.361 174.384C674.337 182.593 703.506 194.104 731.058 208.591C759.164 223.4 786.11 239.417 812.169 254.908C814.948 256.561 817.724 258.21 820.495 259.858C876.449 293.154 929.304 324.602 990.861 348.98C1013.24 357.849 1036.77 366.331 1060.79 374.188C1090.76 383.948 1120.53 392.52 1149.27 399.664C1194.45 410.891 1250.67 424.863 1306.26 416.76C1336.37 412.37 1359.34 402.622 1376.46 386.962C1409.45 357.05 1415.33 311.357 1420.05 274.643C1421.74 261.512 1423.34 249.109 1425.98 239.08C1426.53 237.011 1427.07 234.93 1427.62 232.839C1432.56 213.949 1437.66 194.414 1446.54 175.351C1459.21 147.931 1484.58 110.75 1533.46 89.3352C1547.1 83.3608 1561.33 78.7644 1576.97 75.2818C1598.7 70.397 1622.92 68.101 1648.95 68.4532C1672.72 68.7746 1698.1 71.2996 1724.37 75.9554C1768.95 83.8517 1811.59 98.1979 1847.65 117.442C1888.04 138.945 1922.07 166.457 1948.79 199.211C1961.05 214.24 1971.67 230.307 1980.35 246.967C1988.66 262.923 1995.23 279.464 1999.86 296.13L1998.47 296.28C1978.3 223.655 1923 158.715 1846.74 118.111C1810.82 98.9507 1768.38 84.664 1723.99 76.7986C1669.25 67.0994 1618.58 66.8617 1577.44 76.1073C1561.92 79.5635 1547.8 84.1246 1534.27 90.0529C1485.72 111.32 1460.5 148.309 1447.89 175.593C1439.04 194.606 1433.94 214.112 1429.01 232.978C1428.46 235.069 1427.91 237.151 1427.37 239.221C1424.73 249.213 1423.14 261.6 1421.45 274.711C1416.71 311.531 1410.82 357.356 1377.62 387.46C1369.36 395.008 1359.49 401.326 1348.28 406.233C1336.22 411.511 1322.19 415.342 1306.58 417.618C1295.31 419.256 1283.64 420.079 1271.41 420.079Z" fill="#FFE492" fill-opacity="0.8"/>
<path d="M1290.47 424.366C1273.66 424.366 1255.84 422.666 1236.64 419.254C1209.48 414.426 1183.4 406.887 1160.4 400.237C1131.33 391.832 1101.53 382.047 1071.83 371.159C1047.95 362.376 1024.55 352.974 1002.27 343.219C947.404 319.207 900.515 289.79 850.873 258.646C842.758 253.554 834.365 248.291 826.039 243.115C796.772 224.932 771.78 209.939 744.953 195.874C690.89 167.572 630.981 152.235 566.885 150.289C486.344 147.843 400.073 165.718 310.474 203.416C265.963 222.145 222.136 245.105 187.067 268.07C160.649 285.37 139.996 304.203 118.131 324.14C115.423 326.61 112.704 329.089 109.967 331.57C105.093 335.997 98.6407 341.83 91.9806 347.679C63.9527 372.352 27.3346 397.753 -31.7326 399.052C-33.5746 399.09 -35.4236 399.107 -37.2691 399.107C-83.393 399.107 -130.482 387.698 -178.656 374.958L-181.663 374.157C-205.525 367.791 -228.066 361.779 -248.93 357.403C-327.558 340.91 -403.601 326.989 -461.066 316.704L-460.654 315.804C-403.175 326.093 -327.111 340.016 -248.454 356.516C-227.534 360.903 -204.968 366.923 -181.075 373.296L-178.071 374.098C-128.133 387.304 -79.3639 399.083 -31.7854 398.119C26.6267 396.833 62.9383 371.628 90.7585 347.14C97.415 341.295 103.86 335.466 108.735 331.041C111.471 328.558 114.187 326.082 116.895 323.612C138.795 303.644 159.479 284.78 185.982 267.425C221.121 244.412 265.037 221.406 309.636 202.639C351.03 185.222 392.437 171.849 432.708 162.887C478.913 152.605 524.082 148.052 566.955 149.353C631.383 151.308 691.595 166.72 745.911 195.154C772.777 209.241 797.793 224.25 827.089 242.448C835.419 247.624 843.811 252.889 851.93 257.981C901.523 289.095 948.365 318.483 1003.12 342.447C1025.37 352.19 1048.74 361.576 1072.59 370.347C1102.24 381.221 1132 390.991 1161.03 399.382C1206.59 412.557 1263.3 428.953 1319.75 421.572C1350.6 417.537 1373.71 407.732 1390.4 391.598C1422.97 360.324 1424.93 312.059 1426.51 273.278C1427.02 260.625 1427.51 248.671 1429.06 239.041L1429.09 238.82C1432.58 217.254 1436.18 194.954 1444.44 172.952C1451.59 153.76 1461.56 136.506 1474.05 121.665C1488.14 104.932 1505.51 91.2309 1525.68 80.9396C1539.18 74.0538 1553.46 68.5834 1569.33 64.2182C1612.22 52.3551 1664.77 50.5236 1721.31 58.9261C1744.07 62.3074 1766.51 67.4299 1788.03 74.1484C1809.68 80.9066 1829.93 89.1462 1848.25 98.6341C1889.61 120.033 1923.9 147.806 1950.16 181.18C1973.77 211.178 1990.25 245.398 1997.82 280.137L1996.33 280.263C1980.13 205.91 1925.81 139.971 1847.29 99.3539C1810.57 80.3298 1766.89 66.6639 1720.97 59.8419C1664.75 51.4878 1612.53 53.2995 1569.94 65.0811C1554.19 69.4133 1540.03 74.8397 1526.63 81.6705C1488.97 100.886 1461.05 132.526 1445.9 173.17C1437.66 195.115 1434.07 217.384 1430.59 238.919L1430.55 239.14C1429 248.735 1428.52 260.671 1428 273.307C1426.42 312.207 1424.46 360.617 1391.65 392.111C1383.61 399.891 1373.81 406.345 1362.53 411.294C1350.37 416.63 1336.08 420.396 1320.05 422.494C1310.51 423.74 1300.67 424.366 1290.47 424.366Z" fill="#FFE492" fill-opacity="0.8"/>
<path d="M-30.6375 429.756C-51.2623 429.756 -73.7219 427.244 -99.0696 422.115C-124.255 417.019 -149.163 409.983 -172.33 403.141C-176.525 401.895 -180.688 400.652 -184.823 399.417C-205.405 393.268 -224.847 387.461 -243.017 382.937C-315.467 364.906 -384.526 348.7 -451.314 333.031L-462.38 330.433L-461.823 329.506L-450.757 332.104C-383.966 347.777 -314.897 363.984 -242.432 382.019C-224.213 386.554 -204.747 392.368 -184.14 398.525C-180.008 399.76 -175.845 401.004 -171.654 402.248C-124.097 416.292 -73.5705 429.903 -24.5656 428.69C35.6744 427.123 71.7747 397.792 96.492 372.417C102.825 365.928 108.925 359.46 113.531 354.551C116.074 351.846 118.599 349.142 121.118 346.446C142.003 324.091 161.73 302.976 187.673 283.067C221.917 256.791 265.79 230.08 311.217 207.858C353.361 187.24 395.889 170.95 437.624 159.441C485.495 146.24 532.253 139.389 576.598 139.079C643.326 138.458 705.302 152.806 760.78 181.721C791.534 197.769 819.108 215.129 842.029 229.994C854.5 238.084 866.972 246.377 879.034 254.396C921.731 282.787 965.883 312.142 1015.4 335.919C1037.52 346.543 1060.73 356.836 1084.4 366.511C1113.68 378.458 1143.42 389.425 1172.8 399.106C1218.71 414.238 1275.85 433.071 1333.25 426.388C1364.85 422.709 1388.1 412.847 1404.35 396.238C1436.49 363.546 1434.32 312.637 1432.57 271.732C1432.06 259.635 1431.57 248.208 1432.16 239.009C1433.48 218.27 1435.47 194.167 1442.36 170.56C1448.17 150.556 1456.94 132.459 1468.43 116.772C1481.42 99.0272 1498.08 84.1505 1517.92 72.5538C1531.07 64.8688 1545.8 58.3462 1561.71 53.1643C1584.41 45.7457 1609.89 41.0811 1637.43 39.3024C1663.23 37.636 1690.43 38.5121 1718.27 41.9044C1741.75 44.7661 1764.89 49.4726 1787.05 55.8961C1809.36 62.3593 1830.15 70.4118 1848.85 79.8292C1870.41 90.6731 1890.24 103.478 1907.77 117.891C1924.39 131.546 1939.12 146.774 1951.55 163.153C1974.8 193.793 1990.1 228.72 1995.79 264.15L1994.21 264.249C1981.99 188.164 1928.64 121.228 1847.86 80.6019C1810.86 61.9741 1764.73 48.5767 1717.96 42.8774C1660.14 35.8308 1606.36 39.692 1562.44 54.0426C1546.66 59.1828 1532.05 65.6547 1519 73.278C1481.61 95.1286 1456.35 127.918 1443.92 170.738C1437.04 194.282 1435.06 218.343 1433.74 239.048C1433.16 248.215 1433.64 259.624 1434.16 271.705C1435.02 291.885 1435.99 314.759 1432.73 336.872C1428.93 362.531 1420.09 382.119 1405.7 396.755C1397.87 404.764 1388.14 411.357 1376.79 416.35C1364.54 421.743 1349.98 425.448 1333.54 427.361C1325.25 428.327 1316.96 428.765 1308.72 428.765C1259.39 428.765 1211.59 413.008 1172.06 399.98C1142.64 390.283 1112.86 379.301 1083.53 367.336C1059.84 357.648 1036.59 347.339 1014.44 336.7C964.819 312.875 920.622 283.489 877.883 255.072C865.824 247.055 853.356 238.764 840.891 230.679C818.002 215.831 790.467 198.495 759.77 182.478C704.591 153.718 642.977 139.453 576.623 140.065C472.418 140.796 375.31 177.754 312.196 208.632C266.861 230.811 223.076 257.465 188.905 283.687C163.04 303.537 143.341 324.619 122.488 346.939C119.97 349.635 117.441 352.339 114.898 355.046C110.288 359.958 104.184 366.43 97.848 372.926C87.4722 383.578 71.183 399.084 49.6073 410.707C39.1294 416.352 27.9788 420.787 16.4655 423.894C3.62785 427.356 -10.1572 429.302 -24.4987 429.674C-26.5309 429.729 -28.5772 429.756 -30.6375 429.756Z" fill="#FFE492" fill-opacity="0.8"/>
<path d="M-24.0156 460.404C-44.665 460.404 -67.0789 457.698 -92.2928 452.177C-118.398 446.462 -144.207 438.428 -166.008 431.319C-172.707 429.131 -179.391 426.912 -185.858 424.766C-203.933 418.767 -221.007 413.099 -237.106 408.472C-294.92 391.851 -352.356 375.625 -407.905 359.932C-426.279 354.741 -445.277 349.374 -463.689 344.161L-462.999 343.208C-444.586 348.421 -425.589 353.788 -407.214 358.979C-351.666 374.672 -294.222 390.9 -236.405 407.523C-220.264 412.163 -203.168 417.836 -185.072 423.844C-178.61 425.99 -171.925 428.207 -165.233 430.395C-120.018 445.131 -67.572 460.729 -17.352 459.261C44.3074 457.416 78.939 425.389 102.226 397.694C108.196 390.599 113.969 383.475 118.329 378.062C120.569 375.284 122.795 372.508 125.017 369.739C144.994 344.831 163.861 321.305 189.367 298.712C222.541 269.329 266.379 238.917 312.799 213.08C377.445 177.253 477.36 133.552 586.238 128.812C655.481 125.717 719.211 139 775.651 168.296C801.009 181.464 826.086 196.653 856.966 217.551C872.572 228.111 888.058 239.056 903.034 249.638C941.998 277.17 982.282 305.64 1027.68 329.404C1049.67 340.919 1072.73 352.117 1096.21 362.688C1124.65 375.476 1154.38 387.64 1184.57 398.845C1230.94 415.952 1288.66 437.245 1346.75 431.218C1378.6 427.982 1402.67 417.779 1418.3 400.895C1449.99 366.723 1443.19 310.818 1438.22 269.998C1436.83 258.542 1435.51 247.722 1435.25 238.994C1434.68 219.596 1434.73 194.018 1440.28 168.186C1449.87 123.421 1473.38 88.4284 1510.16 64.185C1523.05 55.6437 1537.83 48.223 1554.09 42.1275C1577.23 33.4453 1603.33 27.6052 1631.68 24.772C1658.38 22.104 1686.49 22.1458 1715.22 24.8975C1739.46 27.2706 1763.3 31.572 1786.07 37.6785C1809.06 43.8467 1830.39 51.7055 1849.46 61.037C1871.5 71.8193 1891.64 84.6685 1909.31 99.2305C1926.06 113.031 1940.73 128.475 1952.93 145.14C1975.82 176.425 1989.94 212.056 1993.76 248.18L1992.09 248.249C1983.86 170.427 1931.5 102.491 1848.43 61.8625C1810.77 43.4307 1763.37 30.6694 1714.97 25.9321C1655.3 20.2196 1599.97 26.1303 1554.96 43.0256C1538.83 49.0705 1524.17 56.4318 1511.38 64.9048C1474.84 88.9876 1451.48 123.782 1441.94 168.326C1436.4 194.089 1436.36 219.616 1436.93 238.977C1437.19 247.674 1438.51 258.48 1439.9 269.921C1442.46 291.021 1445.37 314.938 1443.71 338.288C1441.77 365.477 1433.93 386.128 1419.75 401.421C1412.12 409.669 1402.47 416.405 1391.06 421.442C1378.69 426.903 1363.88 430.54 1347.03 432.253C1320.9 434.963 1292.77 432.528 1261.04 424.808C1233.46 418.096 1207.03 408.348 1183.72 399.75C1153.49 388.53 1123.72 376.347 1095.24 363.542C1071.72 352.956 1048.63 341.742 1026.61 330.211C981.116 306.399 940.786 277.899 901.784 250.338C886.815 239.758 871.333 228.819 855.741 218.268C824.913 197.408 799.882 182.248 774.584 169.11C718.478 139.982 655.153 126.778 586.351 129.853C477.941 134.575 378.357 178.142 313.905 213.861C267.577 239.646 223.83 269.994 190.727 299.315C165.291 321.844 146.452 345.337 126.507 370.208C124.285 372.979 122.059 375.755 119.819 378.533C115.455 383.951 109.679 391.081 103.702 398.182C80.2105 426.124 45.2301 458.438 -17.278 460.307C-19.5004 460.371 -21.7509 460.404 -24.0156 460.404Z" fill="#FFE492" fill-opacity="0.8"/>
<path d="M-17.2608 491.053C-73.683 491.053 -132.884 469.394 -185.365 450.191C-201.492 444.292 -216.725 438.718 -231.2 434.005L-465 357.889L-464.186 356.913L-230.387 433.029C-215.872 437.754 -200.622 443.334 -184.474 449.242C-129.964 469.187 -68.1781 491.792 -10.1393 489.833C52.8795 487.709 86.0778 452.985 107.96 422.974C115.117 413.158 122.027 403.17 128.711 393.511C146.994 367.095 165.896 339.778 191.054 314.355C211.031 294.168 235.847 272.998 262.818 253.135C292.406 231.344 324.086 211.351 356.971 193.714C393.23 174.27 430.098 158.184 466.547 145.908C506.863 132.33 546.581 123.465 584.604 119.557C660.774 111.732 730.051 123.608 790.506 154.86C840.747 180.83 883.448 212.943 924.743 244C960.688 271.032 997.856 298.983 1039.94 322.876C1088.56 350.472 1141.17 375.94 1196.33 398.567C1242.8 417.633 1300.64 441.364 1360.25 436.03C1410.59 431.526 1439.7 410.472 1449.23 371.662C1457.34 338.651 1449.63 299.491 1443.43 268.027C1441.32 257.305 1439.33 247.176 1438.35 238.963C1432.94 193.686 1436.39 156.309 1448.87 124.7C1456.66 104.978 1468.16 87.3979 1483.04 72.4485C1499.66 55.7491 1521 41.8277 1546.46 31.0719C1568.49 21.7668 1593.32 15.0087 1620.26 10.9846C1645.9 7.15427 1672.9 5.87089 1700.51 7.16969C1754.8 9.72325 1807.91 22.1741 1850.05 42.2262C1872.57 52.9445 1893.02 65.84 1910.83 80.5517C1927.71 94.495 1942.33 110.158 1954.29 127.108C1976.82 159.039 1989.76 195.376 1991.71 232.189L1989.95 232.227C1985.8 153.832 1933.1 83.1316 1848.98 43.1045C1759.64 0.596454 1632.83 -4.08141 1547.44 31.9855C1462.86 67.7134 1427.75 135.389 1440.1 238.881C1441.07 247.068 1443.07 257.184 1445.18 267.893C1451.39 299.425 1459.12 338.669 1450.97 371.83C1446.53 389.892 1437.61 404.408 1424.47 414.976C1417.07 420.918 1408.16 425.774 1397.97 429.406C1387.12 433.272 1374.52 435.867 1360.5 437.122C1354.77 437.635 1348.94 437.892 1343.01 437.892C1321.41 437.892 1298.4 434.478 1273.19 427.561C1244.79 419.769 1217.38 408.524 1195.36 399.49C1140.13 376.829 1087.44 351.329 1038.75 323.693C996.57 299.749 959.364 271.765 923.38 244.704C882.138 213.687 839.49 181.613 789.376 155.71C729.326 124.671 660.524 112.872 584.879 120.645C431.863 136.367 274.24 232.381 192.54 314.936C167.45 340.289 148.572 367.568 130.314 393.949C123.626 403.613 116.712 413.607 109.548 423.432C95.0201 443.356 80.6715 457.623 64.3929 468.326C54.232 475.005 43.2082 480.27 31.6279 483.975C18.7515 488.094 4.72699 490.436 -10.0583 490.936C-12.4462 491.013 -14.8517 491.053 -17.2608 491.053Z" fill="#FFE492" fill-opacity="0.8"/>
</g>
</svg>
